<svg width="96" height="96" viewBox="0 0 96 96" fill="none" xmlns="http://www.w3.org/2000/svg">
<path d="M48.001 71.9991C61.2566 71.9991 72.002 61.2532 72.002 47.9976C72.002 34.742 61.2566 23.9961 48.001 23.9961C34.7454 23.9961 24 34.742 24 47.9976C24 61.2532 34.7454 71.9991 48.001 71.9991Z" fill="white"/>
<path d="M27.2151 60.0035L6.43276 24.0073C2.21883 31.3038 0 39.581 0 48.0073C0 56.4337 2.21783 64.7108 6.43124 72.0073C10.6447 79.3038 16.705 85.3632 24.0025 89.5746C31.3 93.786 39.5782 96.0023 48.004 95.9998L68.7864 60.0035V59.998C66.6814 63.6485 63.6523 66.6802 60.0038 68.7882C56.3553 70.8961 52.2161 72.0061 48.0025 72.0067C43.7889 72.0074 39.6494 70.8985 36.0002 68.7917C32.3512 66.6847 29.3213 63.6541 27.2151 60.0046V60.0035Z" fill="#229342"/>
<path d="M68.7849 60.0023L48.003 95.9985C56.4288 96 64.7065 93.7822 72.0035 89.5698C79.3005 85.3573 85.3599 79.2975 89.5723 72C93.7845 64.7026 96.0013 56.4248 96 47.999C95.9985 39.5732 93.7786 31.296 89.5637 24H47.9995L47.9944 24.0035C52.2081 24.0015 56.3479 25.109 59.9977 27.2146C63.6477 29.3206 66.6784 32.3497 68.7859 35.9987C70.8932 39.6476 72.0027 43.7871 72.0026 48.0008C72.0025 52.2146 70.8929 56.354 68.7854 60.0028L68.7849 60.0023Z" fill="#FBC116"/>
<path d="M48.001 67.0039C58.495 67.0039 67.002 58.4969 67.002 48.0024C67.002 37.5079 58.495 29.0015 48.001 29.0015C37.507 29.0015 29.0001 37.5084 29.0001 48.0024C29.0001 58.4964 37.507 67.0039 48.001 67.0039Z" fill="#1A73E8"/>
<path d="M48.001 24.0015H89.5652C85.3533 16.704 79.2945 10.6437 71.9975 6.43024C64.7007 2.21711 56.4233 -0.000639535 47.9975 1.38338e-07C39.5717 0.000504075 31.2945 2.21935 23.9985 6.43378C16.7022 10.648 10.6441 16.7088 6.43326 24.007L27.2156 60.0033L27.2212 60.0063C25.1126 56.3581 24.0018 52.219 24.0004 48.0053C23.9991 43.7916 25.1073 39.6518 27.2136 36.0023C29.3196 32.3528 32.3502 29.3221 35.9992 27.2156C39.6482 25.1092 43.7881 24 48.002 24.001L48.001 24.0015Z" fill="#E33B2E"/>
</svg>
