<svg width="96" height="96" viewBox="0 0 96 96" fill="none" xmlns="http://www.w3.org/2000/svg">
<g clip-path="url(#clip0_3_23)">
<path d="M82 18.8662L75.8961 88.2785L48.459 96L21.0974 88.2894L15 18.8662H82Z" fill="#264DE4"/>
<path d="M70.6705 83.8585L75.8867 24.5425H48.5V90.0979L70.6705 83.8585Z" fill="#2965F1"/>
<path d="M28.9781 50.2905L29.7299 58.8049H48.5V50.2905H28.9781Z" fill="#EBEBEB"/>
<path d="M48.5 33.0571H48.471H27.4677L28.2301 41.5717H48.5V33.0571Z" fill="#EBEBEB"/>
<path d="M48.5 81.2624V72.4038L48.4633 72.4137L39.1218 69.8532L38.5247 63.0625H33.9855H30.1047L31.2799 76.4314L48.4614 81.2733L48.5 81.2624Z" fill="#EBEBEB"/>
<path d="M30.768 0H40.927V4.3125H35.0163V8.625H40.927V12.9375H30.768V0Z" fill="black"/>
<path d="M42.9587 0H53.1177V3.75H47.207V4.5H53.1177V13.125H42.9587V9.1875H48.8694V8.4375H42.9587V0Z" fill="black"/>
<path d="M55.1495 0H65.3084V3.75H59.3978V4.5H65.3084V13.125H55.1495V9.1875H61.0601V8.4375H55.1495V0Z" fill="black"/>
<path d="M58.7995 58.805L57.8259 69.8476L48.471 72.4108V81.269L65.6662 76.4313L65.7924 74.9928L67.7634 52.577L67.9681 50.2906L69.4823 33.0571H48.471V41.5717H60.2901L59.5269 50.2906H48.471V58.805H58.7995Z" fill="white"/>
</g>
<defs>
<clipPath id="clip0_3_23">
<rect width="96" height="96" fill="white"/>
</clipPath>
</defs>
</svg>
