<svg width="96" height="96" viewBox="0 0 96 96" fill="none" xmlns="http://www.w3.org/2000/svg">
<rect width="96" height="96" fill="#D9D9D9"/>
<path d="M10.5844 48.8142L18.6685 51.7377V55.1824L7.68638 50.5302V48.0897L10.5844 48.8142ZM18.6685 46.4246L10.5717 49.3989L7.68638 50.0853V47.6448L18.6685 42.9927V46.4246ZM29.5998 38.4931L22.8123 58.5889H20.0921L26.8797 38.4931H29.5998ZM35.218 43.2469V57H31.5446V43.2469H35.218ZM31.3158 39.6625C31.3158 39.1286 31.5022 38.688 31.8751 38.3405C32.2479 37.9931 32.7479 37.8194 33.3749 37.8194C33.9935 37.8194 34.4893 37.9931 34.8621 38.3405C35.2434 38.688 35.4341 39.1286 35.4341 39.6625C35.4341 40.1963 35.2434 40.6369 34.8621 40.9844C34.4893 41.3318 33.9935 41.5055 33.3749 41.5055C32.7479 41.5055 32.2479 41.3318 31.8751 40.9844C31.5022 40.6369 31.3158 40.1963 31.3158 39.6625ZM41.9039 46.0941V57H38.2305V43.2469H41.6751L41.9039 46.0941ZM41.3955 49.6404H40.3786C40.3786 48.6829 40.493 47.8016 40.7218 46.9966C40.9591 46.1831 41.3022 45.4798 41.7514 44.8866C42.209 44.2849 42.7725 43.8189 43.4419 43.4884C44.1113 43.1579 44.8867 42.9927 45.768 42.9927C46.3781 42.9927 46.9374 43.0859 47.4458 43.2723C47.9542 43.4503 48.3906 43.7341 48.755 44.1239C49.1279 44.5053 49.416 45.0052 49.6194 45.6238C49.8227 46.2339 49.9244 46.9669 49.9244 47.8228V57H46.2637V48.2295C46.2637 47.6025 46.179 47.1195 46.0095 46.7805C45.84 46.4416 45.5985 46.2043 45.285 46.0687C44.9799 45.9331 44.6113 45.8653 44.1791 45.8653C43.7046 45.8653 43.2894 45.9628 42.9335 46.1577C42.586 46.3526 42.2979 46.6237 42.0691 46.9712C41.8403 47.3101 41.6709 47.7084 41.5607 48.166C41.4505 48.6236 41.3955 49.1151 41.3955 49.6404ZM49.5812 49.221L48.272 49.3862C48.272 48.488 48.3822 47.6533 48.6025 46.8822C48.8313 46.1111 49.166 45.4332 49.6066 44.8485C50.0558 44.2638 50.6108 43.8104 51.2718 43.4884C51.9327 43.1579 52.6954 42.9927 53.5597 42.9927C54.2207 42.9927 54.8223 43.0901 55.3646 43.285C55.907 43.4715 56.3688 43.7723 56.7501 44.1875C57.1399 44.5942 57.4365 45.1281 57.6399 45.7891C57.8517 46.45 57.9577 47.2593 57.9577 48.2168V57H54.2842V48.2168C54.2842 47.5813 54.1995 47.0983 54.03 46.7678C53.869 46.4288 53.6317 46.1958 53.3182 46.0687C53.0131 45.9331 52.6488 45.8653 52.2251 45.8653C51.7844 45.8653 51.3989 45.9543 51.0684 46.1323C50.7379 46.3017 50.4625 46.539 50.2422 46.8441C50.0219 47.1491 49.8566 47.505 49.7465 47.9118C49.6363 48.31 49.5812 48.7464 49.5812 49.221ZM69.4991 43.2469H72.8166V56.5424C72.8166 57.7965 72.537 58.86 71.9777 59.7328C71.4269 60.6141 70.6558 61.2793 69.6643 61.7284C68.6729 62.186 67.5204 62.4148 66.207 62.4148C65.6307 62.4148 65.0206 62.3385 64.3766 62.186C63.7411 62.0335 63.131 61.7962 62.5463 61.4742C61.97 61.1522 61.487 60.7455 61.0972 60.254L62.7115 58.0931C63.1352 58.5846 63.6267 58.9659 64.1859 59.2371C64.7452 59.5167 65.3638 59.6566 66.0417 59.6566C66.7027 59.6566 67.262 59.5337 67.7196 59.2879C68.1771 59.0507 68.5288 58.699 68.7746 58.2329C69.0203 57.7754 69.1432 57.2203 69.1432 56.5678V46.4246L69.4991 43.2469ZM60.2456 50.2887V50.0218C60.2456 48.971 60.3727 48.0177 60.6269 47.1618C60.8896 46.2975 61.2582 45.556 61.7328 44.9374C62.2158 44.3188 62.8005 43.8401 63.4869 43.5011C64.1732 43.1622 64.9486 42.9927 65.8129 42.9927C66.7281 42.9927 67.495 43.1622 68.1136 43.5011C68.7322 43.8401 69.2406 44.3231 69.6389 44.9501C70.0372 45.5687 70.3465 46.3017 70.5668 47.1491C70.7956 47.988 70.9735 48.9074 71.1006 49.9074V50.4921C70.9735 51.4496 70.7829 52.3394 70.5286 53.1613C70.2744 53.9833 69.9397 54.7036 69.5245 55.3222C69.1093 55.9323 68.5924 56.4068 67.9738 56.7458C67.3637 57.0847 66.6349 57.2542 65.7875 57.2542C64.9401 57.2542 64.1732 57.0805 63.4869 56.7331C62.8089 56.3856 62.2285 55.8984 61.7455 55.2713C61.2625 54.6443 60.8896 53.907 60.6269 53.0596C60.3727 52.2123 60.2456 51.2886 60.2456 50.2887ZM63.9063 50.0218V50.2887C63.9063 50.8564 63.9614 51.3861 64.0716 51.8775C64.1817 52.369 64.3512 52.8054 64.58 53.1868C64.8173 53.5596 65.1096 53.852 65.457 54.0638C65.8129 54.2672 66.2324 54.3689 66.7154 54.3689C67.3848 54.3689 67.9314 54.229 68.3551 53.9494C68.7788 53.6613 69.0966 53.2673 69.3084 52.7673C69.5203 52.2673 69.6431 51.6911 69.677 51.0386V49.3735C69.6601 48.8397 69.588 48.3609 69.4609 47.9372C69.3338 47.505 69.1559 47.1364 68.9271 46.8313C68.6983 46.5263 68.4017 46.289 68.0373 46.1195C67.6729 45.9501 67.2408 45.8653 66.7408 45.8653C66.2578 45.8653 65.8384 45.9755 65.4825 46.1958C65.135 46.4077 64.8427 46.7 64.6054 47.0729C64.3766 47.4457 64.2029 47.8863 64.0843 48.3948C63.9656 48.8947 63.9063 49.4371 63.9063 50.0218ZM83.9004 49.3227L75.7528 46.4119V42.9927L86.8239 47.6448V50.098L83.9004 49.3227ZM75.7528 51.7631L83.9131 48.7888L86.8239 48.0897V50.5302L75.7528 55.1824V51.7631Z" fill="black"/>
</svg>
