<svg width="96" height="96" viewBox="0 0 96 96" fill="none" xmlns="http://www.w3.org/2000/svg">
<path d="M96 0H0V96H96V0Z" fill="#F7DF1E"/>
<path d="M64.4876 75.0002C66.4214 78.1575 68.9372 80.4782 73.3867 80.4782C77.1246 80.4782 79.5124 78.6101 79.5124 76.0287C79.5124 72.9354 77.0591 71.8398 72.9448 70.0402L70.6895 69.0725C64.1798 66.2992 59.8553 62.8249 59.8553 55.4802C59.8553 48.7144 65.0103 43.564 73.0667 43.564C78.8023 43.564 82.9257 45.5602 85.8972 50.7868L78.8724 55.2973C77.3257 52.524 75.6572 51.4314 73.0667 51.4314C70.4244 51.4314 68.7497 53.1076 68.7497 55.2973C68.7497 58.0036 70.4259 59.0992 74.2964 60.7754L76.5516 61.7415C84.2164 65.0283 88.544 68.3792 88.544 75.9129C88.544 84.0348 82.1638 88.4843 73.5955 88.4843C65.2176 88.4843 59.805 84.492 57.1566 79.2592L64.4876 75.0002ZM32.6202 75.7819C34.0374 78.2962 35.3265 80.4219 38.4259 80.4219C41.3897 80.4219 43.2595 79.2622 43.2595 74.7533V44.079H52.2804V74.8752C52.2804 84.2161 46.8038 88.4676 38.8099 88.4676C31.5871 88.4676 27.4042 84.7297 25.277 80.2276L32.6202 75.7819Z" fill="black"/>
</svg>
