<svg width="749" height="418" viewBox="0 0 749 418" fill="none" xmlns="http://www.w3.org/2000/svg">
<path d="M453.999 109.818L458.044 54.6336L446.263 53.7702C444.551 53.5062 443.191 52.6793 442.185 51.2895C441.252 49.8359 440.849 48.2479 440.976 46.5256L441.582 38.2583C441.708 36.5359 442.336 35.0581 443.465 33.8249C444.668 32.5278 446.136 31.8734 447.869 31.8619L499.126 35.6185C500.838 35.8825 502.16 36.7413 503.093 38.1949C504.099 39.5847 504.539 41.1408 504.413 42.8631L503.807 51.1304C503.681 52.8528 503.016 54.3625 501.813 55.6596C500.683 56.8929 499.253 57.5153 497.52 57.5268L485.739 56.6634L481.695 111.848C481.543 113.914 480.575 115.783 478.791 117.453C477.075 119.128 474.873 119.867 472.186 119.67L462.266 118.943C459.579 118.746 457.474 117.692 455.952 115.779C454.499 113.872 453.848 111.885 453.999 109.818Z" fill="#1A5AFF"/>
<path d="M458.044 54.6336L468.017 55.3646L468.748 45.3913L458.775 44.6604L458.044 54.6336ZM446.263 53.7702L444.739 63.6534L445.134 63.7143L445.532 63.7435L446.263 53.7702ZM442.185 51.2895L433.768 56.6887L433.92 56.9261L434.085 57.1546L442.185 51.2895ZM443.465 33.8249L436.134 27.0239L436.112 27.0475L436.09 27.0713L443.465 33.8249ZM447.869 31.8619L448.599 21.8886L448.201 21.8594L447.802 21.8621L447.869 31.8619ZM499.126 35.6185L500.65 25.7353L500.255 25.6744L499.857 25.6452L499.126 35.6185ZM503.093 38.1949L494.676 43.5941L494.828 43.8315L494.993 44.06L503.093 38.1949ZM501.813 55.6596L494.482 48.8586L494.46 48.8822L494.438 48.906L501.813 55.6596ZM497.52 57.5268L496.789 67.5001L497.187 67.5293L497.587 67.5266L497.52 57.5268ZM485.739 56.6634L486.47 46.6902L476.497 45.9592L475.766 55.9325L485.739 56.6634ZM478.79 117.453L471.958 110.151L471.881 110.224L471.805 110.297L478.79 117.453ZM455.952 115.779L447.998 121.84L448.062 121.924L448.128 122.007L455.952 115.779ZM463.973 110.549L468.017 55.3646L448.071 53.9027L444.026 109.087L463.973 110.549ZM458.775 44.6604L446.994 43.797L445.532 63.7435L457.313 64.6069L458.775 44.6604ZM447.787 43.887C448.115 43.9376 448.615 44.0795 449.156 44.4086C449.699 44.7389 450.07 45.1279 450.284 45.4245L434.085 57.1546C436.676 60.7319 440.415 62.9867 444.739 63.6534L447.787 43.887ZM450.602 45.8903C450.685 46.019 450.799 46.2449 450.876 46.5479C450.953 46.8509 450.96 47.1041 450.949 47.2565L431.002 45.7946C430.718 49.6749 431.667 53.4139 433.768 56.6887L450.602 45.8903ZM450.949 47.2565L451.555 38.9892L431.608 37.5273L431.002 45.7946L450.949 47.2565ZM451.555 38.9892C451.544 39.1399 451.498 39.423 451.351 39.7681C451.203 40.117 451.01 40.393 450.84 40.5784L436.09 27.0713C433.389 30.0206 431.893 33.6417 431.608 37.5273L451.555 38.9892ZM450.796 40.6259C450.573 40.8665 450.158 41.2194 449.54 41.4949C448.917 41.7725 448.34 41.8589 447.935 41.8616L447.802 21.8621C443.245 21.8925 439.168 23.7526 436.134 27.0239L450.796 40.6259ZM447.138 41.8351L498.395 45.5917L499.857 25.6452L448.599 21.8886L447.138 41.8351ZM497.602 45.5017C497.199 45.4395 496.594 45.2618 495.955 44.8471C495.316 44.4318 494.902 43.9477 494.676 43.5941L511.51 32.7957C509.023 28.9193 505.186 26.4347 500.65 25.7353L497.602 45.5017ZM494.993 44.06C494.851 43.863 494.673 43.5443 494.555 43.1257C494.437 42.708 494.424 42.354 494.44 42.1322L514.386 43.5941C514.684 39.5376 513.591 35.6423 511.192 32.3299L494.993 44.06ZM494.44 42.1322L493.834 50.3995L513.78 51.8614L514.386 43.5941L494.44 42.1322ZM493.834 50.3995C493.85 50.1762 493.913 49.8629 494.062 49.5247C494.209 49.1893 494.381 48.9667 494.482 48.8586L509.144 62.4606C511.851 59.543 513.484 55.9078 513.78 51.8614L493.834 50.3995ZM494.438 48.906C494.751 48.5639 495.243 48.1686 495.904 47.8813C496.556 47.5975 497.119 47.5293 497.453 47.527L497.587 67.5266C501.988 67.4972 506.105 65.7799 509.188 62.4132L494.438 48.906ZM498.251 47.5536L486.47 46.6902L485.008 66.6367L496.789 67.5001L498.251 47.5536ZM475.766 55.9325L471.722 111.117L491.668 112.579L495.712 57.3943L475.766 55.9325ZM471.722 111.117C471.733 110.963 471.761 110.795 471.81 110.624C471.858 110.453 471.919 110.309 471.976 110.199C472.093 109.974 472.151 109.97 471.958 110.151L485.623 124.755C488.893 121.695 491.301 117.593 491.668 112.579L471.722 111.117ZM471.805 110.297C471.881 110.223 472.002 110.122 472.166 110.021C472.331 109.919 472.504 109.839 472.67 109.784C473.013 109.668 473.146 109.714 472.917 109.697L471.455 129.644C476.606 130.021 481.744 128.545 485.776 124.608L471.805 110.297ZM472.917 109.697L462.997 108.97L461.535 128.916L471.455 129.644L472.917 109.697ZM462.997 108.97C462.771 108.953 462.878 108.927 463.152 109.064C463.283 109.13 463.415 109.214 463.535 109.313C463.655 109.411 463.734 109.498 463.776 109.552L448.128 122.007C451.576 126.339 456.381 128.539 461.535 128.916L462.997 108.97ZM463.906 109.719C463.759 109.526 463.808 109.533 463.877 109.745C463.911 109.849 463.943 109.98 463.961 110.13C463.98 110.281 463.982 110.424 463.973 110.549L444.026 109.087C443.669 113.966 445.312 118.315 447.998 121.84L463.906 109.719Z" fill="black"/>
<path d="M513.971 123.281C511.24 122.862 509.191 121.639 507.824 119.613C506.526 117.596 506.079 115.501 506.482 113.327L516.868 45.6269C517.125 43.4997 518.175 41.669 520.017 40.1346C521.928 38.6107 524.25 38.0583 526.981 38.4773L536.608 39.9543C539.339 40.3733 541.354 41.5909 542.652 43.6071C544.019 45.6338 544.505 47.7002 544.112 49.8064L540.278 74.7969L548.062 75.9911L551.896 51.0006C552.153 48.8734 553.202 47.0427 555.045 45.5083C556.956 43.9844 559.277 43.432 562.008 43.851L571.636 45.328C574.367 45.747 576.382 46.9646 577.68 48.9808C579.046 51.0075 579.533 53.0739 579.14 55.1801L568.754 122.88C568.487 125.075 567.398 126.935 565.487 128.459C563.644 129.993 561.357 130.551 558.626 130.132L548.998 128.655C546.267 128.236 544.218 127.013 542.852 124.986C541.554 122.97 541.107 120.875 541.51 118.7L545.328 93.8122L537.544 92.6181L533.726 117.506C533.459 119.702 532.37 121.561 530.459 123.085C528.616 124.62 526.329 125.177 523.598 124.758L513.971 123.281Z" fill="#1A5AFF"/>
<path d="M507.824 119.613L499.416 125.026L499.474 125.115L499.533 125.203L507.824 119.613ZM506.482 113.327L516.315 115.151L516.343 114.997L516.367 114.843L506.482 113.327ZM516.868 45.6269L526.753 47.1433L526.777 46.9839L526.797 46.8238L516.868 45.6269ZM520.017 40.1346L513.783 32.316L513.7 32.382L513.619 32.4497L520.017 40.1346ZM542.652 43.6071L534.244 49.0204L534.301 49.1094L534.361 49.1972L542.652 43.6071ZM544.112 49.8064L534.282 47.9721L534.252 48.1307L534.228 48.29L544.112 49.8064ZM540.278 74.7969L530.394 73.2806L528.878 83.1649L538.762 84.6813L540.278 74.7969ZM548.062 75.9911L546.546 85.8755L556.43 87.3918L557.947 77.5075L548.062 75.9911ZM551.896 51.0006L561.781 52.517L561.805 52.3576L561.824 52.1975L551.896 51.0006ZM555.045 45.5083L548.81 37.6897L548.728 37.7557L548.646 37.8234L555.045 45.5083ZM577.68 48.9808L569.272 54.3941L569.329 54.4831L569.388 54.5709L577.68 48.9808ZM579.14 55.1801L569.31 53.3458L569.28 53.5043L569.256 53.6637L579.14 55.1801ZM568.754 122.88L558.87 121.363L558.846 121.518L558.827 121.673L568.754 122.88ZM565.487 128.459L559.252 120.64L559.17 120.706L559.088 120.774L565.487 128.459ZM542.852 124.986L534.444 130.4L534.501 130.489L534.561 130.576L542.852 124.986ZM541.51 118.7L551.342 120.525L551.371 120.371L551.395 120.217L541.51 118.7ZM545.328 93.8122L555.213 95.3286L556.729 85.4442L546.845 83.9278L545.328 93.8122ZM537.544 92.6181L539.061 82.7337L529.176 81.2173L527.66 91.1017L537.544 92.6181ZM533.726 117.506L523.842 115.99L523.818 116.144L523.799 116.299L533.726 117.506ZM530.459 123.085L524.225 115.267L524.142 115.333L524.061 115.4L530.459 123.085ZM515.487 113.397C515.198 113.352 515.267 113.317 515.511 113.463C515.628 113.533 515.753 113.626 515.87 113.737C515.987 113.849 516.068 113.951 516.116 114.023L499.533 125.203C502.671 129.857 507.362 132.384 512.454 133.166L515.487 113.397ZM516.232 114.199C516.16 114.087 516.238 114.174 516.295 114.441C516.355 114.723 516.345 114.986 516.315 115.151L496.65 111.502C495.741 116.404 496.866 121.064 499.416 125.026L516.232 114.199ZM516.367 114.843L526.753 47.1433L506.984 44.1105L496.598 111.81L516.367 114.843ZM526.797 46.8238C526.767 47.0695 526.675 47.3672 526.523 47.6322C526.382 47.8793 526.285 47.9282 526.416 47.8195L513.619 32.4497C510.068 35.4062 507.54 39.4597 506.94 44.43L526.797 46.8238ZM526.252 47.9532C526.184 48.0071 526.077 48.0806 525.932 48.1516C525.786 48.223 525.64 48.274 525.507 48.3056C525.23 48.3715 525.175 48.3173 525.464 48.3617L528.497 28.5929C523.405 27.8117 518.172 28.8163 513.783 32.316L526.252 47.9532ZM525.464 48.3617L535.092 49.8386L538.125 30.0699L528.497 28.5929L525.464 48.3617ZM535.092 49.8386C535.385 49.8836 535.285 49.9153 534.995 49.7401C534.854 49.6548 534.703 49.5408 534.559 49.4005C534.416 49.2607 534.312 49.1261 534.244 49.0204L551.06 38.1937C547.968 33.3909 543.211 30.8502 538.125 30.0699L535.092 49.8386ZM534.361 49.1972C534.469 49.3573 534.381 49.2774 534.308 48.9694C534.23 48.6359 534.226 48.2734 534.282 47.9721L553.943 51.6407C554.886 46.5846 553.554 41.8881 550.944 38.017L534.361 49.1972ZM534.228 48.29L530.394 73.2806L550.163 76.3133L553.997 51.3228L534.228 48.29ZM538.762 84.6813L546.546 85.8755L549.579 66.1067L541.795 64.9126L538.762 84.6813ZM557.947 77.5075L561.781 52.517L542.012 49.4842L538.178 74.4747L557.947 77.5075ZM561.824 52.1975C561.795 52.4432 561.703 52.7409 561.551 53.0059C561.409 53.253 561.313 53.3019 561.444 53.1932L548.646 37.8234C545.096 40.7799 542.567 44.8333 541.968 49.8037L561.824 52.1975ZM561.28 53.3269C561.212 53.3808 561.104 53.4543 560.96 53.5253C560.814 53.5967 560.667 53.6477 560.535 53.6793C560.258 53.7452 560.203 53.6909 560.492 53.7353L563.525 33.9666C558.432 33.1854 553.199 34.19 548.81 37.6897L561.28 53.3269ZM560.492 53.7353L570.12 55.2123L573.152 35.4436L563.525 33.9666L560.492 53.7353ZM570.12 55.2123C570.413 55.2573 570.313 55.2889 570.023 55.1138C569.882 55.0284 569.73 54.9144 569.587 54.7741C569.443 54.6343 569.34 54.4998 569.272 54.3941L586.088 43.5674C582.996 38.7646 578.238 36.2238 573.152 35.4436L570.12 55.2123ZM569.388 54.5709C569.496 54.731 569.409 54.651 569.336 54.3431C569.257 54.0096 569.253 53.6471 569.31 53.3458L588.97 57.0144C589.914 51.9583 588.581 47.2618 585.971 43.3906L569.388 54.5709ZM569.256 53.6637L558.87 121.363L578.638 124.396L589.024 56.6965L569.256 53.6637ZM558.827 121.673C558.854 121.45 558.943 121.149 559.108 120.868C559.262 120.604 559.374 120.543 559.252 120.64L571.721 136.277C575.447 133.307 578.063 129.17 578.681 124.087L558.827 121.673ZM559.088 120.774C559.185 120.694 559.324 120.596 559.503 120.506C559.682 120.415 559.86 120.352 560.021 120.313C560.35 120.232 560.436 120.293 560.142 120.248L557.11 140.016C562.196 140.796 567.496 139.799 571.886 136.144L559.088 120.774ZM560.142 120.248L550.515 118.771L547.482 138.539L557.11 140.016L560.142 120.248ZM550.515 118.771C550.225 118.726 550.294 118.691 550.539 118.837C550.656 118.907 550.781 118.999 550.898 119.111C551.015 119.222 551.095 119.325 551.144 119.396L534.561 130.576C537.698 135.231 542.39 137.758 547.482 138.539L550.515 118.771ZM551.26 119.573C551.188 119.461 551.266 119.548 551.323 119.815C551.383 120.097 551.373 120.36 551.342 120.525L531.678 116.876C530.768 121.778 531.893 126.438 534.444 130.4L551.26 119.573ZM551.395 120.217L555.213 95.3286L535.444 92.2958L531.626 117.184L551.395 120.217ZM546.845 83.9278L539.061 82.7337L536.028 102.502L543.812 103.697L546.845 83.9278ZM527.66 91.1017L523.842 115.99L543.611 119.023L547.429 94.1344L527.66 91.1017ZM523.799 116.299C523.826 116.076 523.915 115.776 524.08 115.494C524.235 115.23 524.347 115.169 524.225 115.267L536.694 130.904C540.419 127.933 543.035 123.796 543.653 118.713L523.799 116.299ZM524.061 115.4C524.157 115.32 524.296 115.223 524.475 115.132C524.654 115.041 524.833 114.978 524.993 114.939C525.322 114.859 525.408 114.919 525.115 114.874L522.082 134.643C527.168 135.423 532.468 134.425 536.858 130.77L524.061 115.4ZM525.115 114.874L515.487 113.397L512.454 133.166L522.082 134.643L525.115 114.874Z" fill="black"/>
<path d="M615.394 91.7426L610.37 106.911L615.766 108.392L619.191 92.7849C619.722 90.0655 620.132 87.9214 620.419 86.3527C620.725 84.7174 620.642 83.5843 620.17 82.9534L619.571 82.7888C618.843 83.0905 618.193 84.0225 617.621 85.5847C617.068 87.0802 616.325 89.1329 615.394 91.7426ZM604.843 124.305L601.581 135.015C600.996 137.146 599.666 138.859 597.592 140.152C595.584 141.463 593.282 141.762 590.684 141.049L581.291 138.471C578.56 137.721 576.633 136.261 575.509 134.09C574.453 131.937 574.283 129.814 575.002 127.719L590.401 81.0138C594.343 71.3508 598.895 65.0785 604.055 62.1971C609.216 59.3157 615.394 58.8624 622.588 60.8373L628.783 62.5379C635.978 64.5129 641.058 68.0565 644.024 73.1688C646.991 78.2812 647.702 85.998 646.158 96.3194L635.555 144.341C635.103 146.509 633.84 148.24 631.765 149.533C629.758 150.844 627.388 151.125 624.657 150.375L615.265 147.797C612.667 147.084 610.806 145.642 609.683 143.471C608.626 141.318 608.39 139.176 608.975 137.045L611.638 126.171L604.843 124.305Z" fill="#1A5AFF"/>
<path d="M615.394 91.7426L605.975 88.3817L605.937 88.4898L605.901 88.5988L615.394 91.7426ZM610.37 106.911L600.877 103.767L597.566 113.766L607.723 116.554L610.37 106.911ZM615.766 108.392L613.119 118.036L623.276 120.824L625.534 110.536L615.766 108.392ZM619.191 92.7849L628.958 94.9282L628.983 94.8161L629.005 94.7034L619.191 92.7849ZM620.419 86.3527L610.589 84.5155L610.586 84.5332L610.583 84.5509L620.419 86.3527ZM620.17 82.9534L628.18 76.9667L626.126 74.2184L622.817 73.3101L620.17 82.9534ZM619.571 82.7888L622.218 73.1456L618.909 72.2373L615.74 73.5517L619.571 82.7888ZM617.621 85.5847L626.999 89.0573L627.005 89.0404L627.011 89.0235L617.621 85.5847ZM604.843 124.305L607.49 114.662L598.111 112.088L595.277 121.392L604.843 124.305ZM601.581 135.015L592.015 132.101L591.975 132.234L591.938 132.368L601.581 135.015ZM597.592 140.152L592.302 131.666L592.212 131.722L592.123 131.78L597.592 140.152ZM575.509 134.09L566.533 138.497L566.579 138.592L566.628 138.686L575.509 134.09ZM575.002 127.719L584.461 130.962L584.48 130.906L584.499 130.85L575.002 127.719ZM590.401 81.0138L581.142 77.2366L581.012 77.5554L580.904 77.8824L590.401 81.0138ZM644.024 73.1688L652.674 68.1502L644.024 73.1688ZM646.158 96.3194L655.923 98.4755L655.997 98.1392L656.048 97.7987L646.158 96.3194ZM635.555 144.341L625.79 142.185L625.777 142.242L625.765 142.3L635.555 144.341ZM631.765 149.533L626.475 141.047L626.385 141.103L626.297 141.161L631.765 149.533ZM609.683 143.471L600.706 147.878L600.753 147.973L600.801 148.067L609.683 143.471ZM608.975 137.045L618.619 139.692L618.655 139.558L618.688 139.423L608.975 137.045ZM611.638 126.171L621.351 128.549L623.664 119.102L614.285 116.527L611.638 126.171ZM605.901 88.5988L600.877 103.767L619.863 110.055L624.887 94.8865L605.901 88.5988ZM607.723 116.554L613.119 118.036L618.413 98.7491L613.017 97.2679L607.723 116.554ZM625.534 110.536L628.958 94.9282L609.423 90.6416L605.998 106.249L625.534 110.536ZM629.005 94.7034C629.54 91.9689 629.958 89.7803 630.255 88.1545L610.583 84.5509C610.306 86.0625 609.905 88.1621 609.376 90.8664L629.005 94.7034ZM630.249 88.1899C630.494 86.8793 630.686 85.2678 630.559 83.5463C630.437 81.875 629.959 79.3462 628.18 76.9667L612.16 88.9401C610.853 87.1915 610.652 85.5446 610.613 85.0064C610.57 84.4181 610.65 84.1908 610.589 84.5155L630.249 88.1899ZM622.817 73.3101L622.218 73.1456L616.924 92.4321L617.523 92.5967L622.817 73.3101ZM615.74 73.5517C612.996 74.6897 611.293 76.6199 610.335 77.9945C609.348 79.4104 608.69 80.8939 608.231 82.1459L627.011 89.0235C627.125 88.7133 627.078 88.9497 626.741 89.4336C626.432 89.8763 625.418 91.1896 623.402 92.0259L615.74 73.5517ZM608.244 82.1121C607.67 83.6621 606.912 85.7575 605.975 88.3817L624.812 95.1036C625.738 92.5083 626.465 90.4984 626.999 89.0573L608.244 82.1121ZM595.277 121.392L592.015 132.101L611.147 137.929L614.409 127.219L595.277 121.392ZM591.938 132.368C591.958 132.294 591.994 132.192 592.052 132.076C592.11 131.959 592.178 131.853 592.247 131.765C592.391 131.578 592.464 131.565 592.302 131.666L602.882 148.638C606.845 146.167 609.901 142.482 611.224 137.662L591.938 132.368ZM592.123 131.78C592.213 131.721 592.35 131.646 592.531 131.578C592.713 131.51 592.898 131.466 593.071 131.443C593.43 131.396 593.552 131.467 593.331 131.406L588.037 150.693C593.017 152.06 598.344 151.605 603.061 148.524L592.123 131.78ZM593.331 131.406L583.938 128.828L578.644 148.114L588.037 150.693L593.331 131.406ZM583.938 128.828C583.593 128.733 583.628 128.685 583.836 128.843C583.938 128.92 584.051 129.024 584.159 129.153C584.267 129.281 584.343 129.402 584.391 129.494L566.628 138.686C569.241 143.736 573.69 146.754 578.644 148.114L583.938 128.828ZM584.486 129.683C584.444 129.597 584.531 129.747 584.558 130.089C584.587 130.448 584.529 130.765 584.461 130.962L565.542 124.475C563.887 129.304 564.412 134.177 566.533 138.497L584.486 129.683ZM584.499 130.85L599.898 84.1452L580.904 77.8824L565.505 124.587L584.499 130.85ZM599.661 84.7911C603.332 75.7909 606.778 72.1303 608.93 70.9283L599.18 53.4659C591.012 58.0268 585.355 66.9106 581.142 77.2366L599.661 84.7911ZM608.93 70.9283C611.239 69.6395 614.58 69.0089 619.941 70.4806L625.235 51.1941C616.207 48.7159 607.193 48.9918 599.18 53.4659L608.93 70.9283ZM619.941 70.4806L626.136 72.1812L631.43 52.8947L625.235 51.1941L619.941 70.4806ZM626.136 72.1812C631.497 73.6529 634.048 75.9008 635.375 78.1875L652.674 68.1502C648.068 60.2121 640.458 55.3728 631.43 52.8947L626.136 72.1812ZM635.375 78.1875C636.612 80.32 637.706 85.2268 636.268 94.84L656.048 97.7987C657.698 86.7692 657.369 76.2423 652.674 68.1502L635.375 78.1875ZM636.393 94.1632L625.79 142.185L645.319 146.497L655.923 98.4755L636.393 94.1632ZM625.765 142.3C625.819 142.041 625.955 141.692 626.191 141.37C626.413 141.066 626.577 140.983 626.475 141.047L637.056 158.019C641.181 155.447 644.274 151.513 645.344 146.381L625.765 142.3ZM626.297 141.161C626.417 141.082 626.579 140.996 626.773 140.926C626.968 140.855 627.152 140.815 627.306 140.796C627.618 140.759 627.654 140.828 627.304 140.732L622.01 160.018C626.955 161.376 632.39 161.069 637.234 157.905L626.297 141.161ZM627.304 140.732L617.912 138.154L612.617 157.44L622.01 160.018L627.304 140.732ZM617.912 138.154C617.694 138.094 617.803 138.088 618.046 138.276C618.162 138.366 618.274 138.474 618.374 138.594C618.472 138.713 618.533 138.814 618.564 138.875L600.801 148.067C603.346 152.985 607.634 156.072 612.617 157.44L617.912 138.154ZM618.659 139.064C618.584 138.911 618.631 138.953 618.653 139.156C618.664 139.251 618.666 139.355 618.657 139.46C618.649 139.564 618.632 139.644 618.619 139.692L599.332 134.397C598.044 139.09 598.672 143.735 600.706 147.878L618.659 139.064ZM618.688 139.423L621.351 128.549L601.925 123.792L599.262 134.666L618.688 139.423ZM614.285 116.527L607.49 114.662L602.196 133.949L608.991 135.814L614.285 116.527Z" fill="black"/>
<path d="M652.729 156.233L676.055 106.058L665.343 101.078C663.835 100.225 662.857 98.9702 662.408 97.3141C662.051 95.6245 662.236 93.9967 662.964 92.4307L666.459 84.9138C667.187 83.3477 668.297 82.1881 669.79 81.4347C671.375 80.6478 672.979 80.5558 674.604 81.1585L721.208 102.825C722.716 103.678 723.649 104.949 724.006 106.639C724.455 108.295 724.315 109.906 723.587 111.472L720.093 118.989C719.365 120.555 718.208 121.732 716.624 122.518C715.131 123.272 713.572 123.347 711.948 122.744L701.236 117.765L677.91 167.94C677.037 169.819 675.47 171.224 673.209 172.153C671.011 173.112 668.691 173.024 666.248 171.888L657.227 167.695C654.784 166.559 653.19 164.827 652.444 162.5C651.76 160.201 651.855 158.112 652.729 156.233Z" fill="#1A5AFF"/>
<path d="M676.055 106.058L685.123 110.274L689.338 101.206L680.27 96.99L676.055 106.058ZM665.343 101.078L660.418 109.781L660.765 109.978L661.127 110.146L665.343 101.078ZM662.408 97.3141L652.624 99.3824L652.683 99.6584L652.756 99.9306L662.408 97.3141ZM669.79 81.4347L665.343 72.4781L665.314 72.4925L665.285 72.507L669.79 81.4347ZM674.604 81.1585L678.819 72.0905L678.457 71.9222L678.083 71.7832L674.604 81.1585ZM721.208 102.825L726.134 94.1217L725.786 93.925L725.424 93.7566L721.208 102.825ZM724.006 106.639L714.222 108.707L714.28 108.983L714.354 109.255L724.006 106.639ZM716.624 122.518L712.176 113.562L712.147 113.576L712.118 113.591L716.624 122.518ZM711.948 122.744L707.732 131.812L708.094 131.981L708.469 132.12L711.948 122.744ZM701.236 117.765L705.452 108.697L696.384 104.481L692.168 113.549L701.236 117.765ZM673.209 172.153L669.405 162.905L669.307 162.945L669.21 162.988L673.209 172.153ZM652.444 162.5L642.859 165.35L642.889 165.452L642.921 165.553L652.444 162.5ZM661.797 160.449L685.123 110.274L666.987 101.842L643.661 152.018L661.797 160.449ZM680.27 96.99L669.559 92.0103L661.127 110.146L671.839 115.126L680.27 96.99ZM670.268 92.3753C670.557 92.5388 670.975 92.8487 671.364 93.3481C671.755 93.8493 671.964 94.3442 672.06 94.6977L652.756 99.9306C653.912 104.193 656.61 107.626 660.418 109.781L670.268 92.3753ZM672.192 95.2458C672.223 95.3954 672.25 95.6472 672.215 95.9578C672.18 96.2684 672.097 96.5077 672.032 96.6463L653.896 88.215C652.256 91.7431 651.82 95.5759 652.624 99.3824L672.192 95.2458ZM672.032 96.6463L675.527 89.1294L657.391 80.6981L653.896 88.215L672.032 96.6463ZM675.527 89.1294C675.463 89.2664 675.32 89.5148 675.06 89.7856C674.798 90.0594 674.52 90.2491 674.295 90.3624L665.285 72.507C661.715 74.3086 659.033 77.1652 657.391 80.6981L675.527 89.1294ZM674.238 90.3913C673.944 90.5373 673.431 90.7203 672.755 90.7591C672.074 90.7981 671.504 90.6747 671.125 90.5338L678.083 71.7832C673.81 70.1977 669.339 70.4936 665.343 72.4781L674.238 90.3913ZM670.388 90.2265L716.993 111.893L725.424 93.7566L678.819 72.0905L670.388 90.2265ZM716.283 111.528C715.928 111.327 715.425 110.946 714.975 110.332C714.524 109.717 714.309 109.118 714.222 108.707L733.79 104.571C732.837 100.065 730.128 96.3823 726.134 94.1217L716.283 111.528ZM714.354 109.255C714.29 109.021 714.238 108.66 714.275 108.226C714.313 107.794 714.425 107.458 714.519 107.257L732.655 115.688C734.37 112 734.727 107.97 733.657 104.023L714.354 109.255ZM714.519 107.257L711.025 114.773L729.161 123.205L732.655 115.688L714.519 107.257ZM711.025 114.773C711.119 114.57 711.289 114.3 711.548 114.036C711.804 113.775 712.044 113.627 712.176 113.562L721.071 131.475C724.635 129.705 727.45 126.884 729.161 123.205L711.025 114.773ZM712.118 113.591C712.533 113.382 713.133 113.186 713.852 113.152C714.563 113.117 715.113 113.253 715.427 113.369L708.469 132.12C712.595 133.651 717.053 133.503 721.129 131.446L712.118 113.591ZM716.163 113.676L705.452 108.697L697.021 126.833L707.732 131.812L716.163 113.676ZM692.168 113.549L668.842 163.724L686.978 172.156L710.304 121.98L692.168 113.549ZM668.842 163.724C668.907 163.585 668.993 163.438 669.099 163.295C669.205 163.152 669.313 163.039 669.406 162.956C669.594 162.787 669.65 162.804 669.405 162.905L677.013 181.402C681.155 179.698 684.859 176.715 686.978 172.156L668.842 163.724ZM669.21 162.988C669.308 162.945 669.456 162.893 669.646 162.857C669.837 162.82 670.027 162.807 670.201 162.813C670.563 162.827 670.671 162.917 670.463 162.82L662.032 180.956C666.715 183.133 672.043 183.572 677.208 181.319L669.21 162.988ZM670.463 162.82L661.443 158.627L653.012 176.763L662.032 180.956L670.463 162.82ZM661.443 158.627C661.238 158.531 661.347 158.544 661.555 158.77C661.654 158.877 661.747 159.003 661.825 159.138C661.902 159.272 661.945 159.382 661.966 159.447L642.921 165.553C644.612 170.826 648.326 174.584 653.012 176.763L661.443 158.627ZM662.029 159.649C661.959 159.416 662.002 159.441 661.992 159.664C661.987 159.772 661.97 159.906 661.934 160.053C661.898 160.201 661.849 160.335 661.797 160.449L643.661 152.018C641.598 156.454 641.595 161.103 642.859 165.35L662.029 159.649Z" fill="black"/>
<path d="M68.4965 215.69C66.1114 216.943 63.7674 217.16 61.4645 216.341C59.2227 215.489 57.5879 214.085 56.5601 212.128L24.7606 151.583C23.7327 149.626 23.5046 147.483 24.076 145.154C24.7086 142.793 26.2175 140.986 28.6026 139.734L35.758 135.975C40.4059 133.534 44.6782 133.943 48.5748 137.203L63.554 149.232L56.1341 135.105C55.1062 133.148 54.878 131.005 55.4495 128.676C56.0821 126.315 57.591 124.508 59.9761 123.256L68.5992 118.727C70.9844 117.474 73.4056 117.256 75.8629 118.072C77.9502 118.926 79.5078 120.332 80.5357 122.289L112.335 182.834C113.363 184.791 113.561 186.95 112.928 189.311C112.357 191.64 110.878 193.431 108.493 194.683L101.338 198.442C96.6898 200.883 92.4176 200.474 88.521 197.214L73.5418 185.185L80.9617 199.312C81.9895 201.269 82.1871 203.428 81.5545 205.789C80.983 208.118 79.5047 209.909 77.1196 211.161L68.4965 215.69Z" fill="#FF00D6"/>
<path d="M61.4645 216.341L57.9143 225.689L58.0133 225.727L58.113 225.762L61.4645 216.341ZM24.076 145.154L14.4168 142.566L14.3894 142.668L14.3641 142.771L24.076 145.154ZM48.5748 137.203L42.1589 144.873L42.2354 144.937L42.3132 144.999L48.5748 137.203ZM63.554 149.232L57.2923 157.029L72.4071 144.582L63.554 149.232ZM55.4495 128.676L45.7902 126.088L45.7629 126.19L45.7376 126.293L55.4495 128.676ZM75.8629 118.072L79.6511 108.817L79.3369 108.688L79.0147 108.581L75.8629 118.072ZM112.928 189.311L103.269 186.723L103.241 186.825L103.216 186.928L112.928 189.311ZM88.521 197.214L94.9369 189.544L94.8604 189.48L94.7826 189.417L88.521 197.214ZM73.5418 185.185L79.8034 177.388L64.6886 189.835L73.5418 185.185ZM81.5545 205.789L71.8953 203.201L71.8679 203.303L71.8426 203.406L81.5545 205.789ZM63.8467 206.837C63.6468 206.942 63.7229 206.863 64.0288 206.835C64.1741 206.822 64.3306 206.824 64.485 206.844C64.6381 206.864 64.7515 206.896 64.8159 206.919L58.113 225.762C63.3303 227.618 68.5712 226.946 73.1464 224.544L63.8467 206.837ZM65.0146 206.992C64.8555 206.932 64.9178 206.93 65.0727 207.063C65.1454 207.126 65.218 207.2 65.2833 207.283C65.3482 207.365 65.3902 207.434 65.4133 207.478L47.7069 216.778C49.9698 221.086 53.6002 224.051 57.9143 225.689L65.0146 206.992ZM65.4133 207.478L33.6138 146.933L15.9074 156.233L47.7069 216.778L65.4133 207.478ZM33.6138 146.933C33.6369 146.977 33.6704 147.051 33.701 147.151C33.7318 147.251 33.7522 147.354 33.7623 147.449C33.784 147.652 33.7473 147.702 33.7879 147.537L14.3641 142.771C13.2644 147.253 13.6445 151.924 15.9074 156.233L33.6138 146.933ZM33.7353 147.742C33.7176 147.808 33.6799 147.92 33.6094 148.057C33.5382 148.196 33.4512 148.326 33.3577 148.438C33.1608 148.674 33.0526 148.692 33.2525 148.587L23.9528 130.88C19.3777 133.283 15.85 137.217 14.4168 142.566L33.7353 147.742ZM33.2525 148.587L40.4078 144.829L31.1081 127.122L23.9528 130.88L33.2525 148.587ZM40.4078 144.829C41.3977 144.309 41.6872 144.424 41.495 144.406C41.4305 144.4 41.4162 144.384 41.4853 144.415C41.5669 144.452 41.7949 144.569 42.1589 144.873L54.9907 129.532C51.7845 126.85 47.894 124.927 43.4013 124.497C38.9368 124.069 34.7662 125.201 31.1081 127.122L40.4078 144.829ZM42.3132 144.999L57.2923 157.029L69.8156 141.435L54.8364 129.406L42.3132 144.999ZM72.4071 144.582L64.9873 130.455L47.2809 139.755L54.7008 153.882L72.4071 144.582ZM64.9873 130.455C65.0104 130.499 65.0439 130.573 65.0745 130.673C65.1053 130.774 65.1257 130.876 65.1358 130.971C65.1574 131.174 65.1208 131.225 65.1614 131.059L45.7376 126.293C44.6379 130.775 45.018 135.446 47.2809 139.755L64.9873 130.455ZM65.1088 131.264C65.091 131.33 65.0534 131.442 64.9828 131.579C64.9117 131.718 64.8247 131.848 64.7312 131.96C64.5343 132.196 64.4261 132.214 64.626 132.109L55.3263 114.402C50.7511 116.805 47.2235 120.739 45.7902 126.088L65.1088 131.264ZM64.626 132.109L73.2491 127.58L63.9494 109.873L55.3263 114.402L64.626 132.109ZM73.2491 127.58C73.3335 127.535 73.3568 127.532 73.3214 127.543C73.2839 127.555 73.2076 127.573 73.102 127.583C72.9957 127.593 72.8945 127.59 72.8104 127.579C72.7281 127.569 72.6924 127.556 72.7111 127.562L79.0147 108.581C73.8635 106.871 68.6312 107.414 63.9494 109.873L73.2491 127.58ZM72.0747 127.326C72.1298 127.349 72.0377 127.318 71.8967 127.19C71.8327 127.133 71.7789 127.073 71.7378 127.02C71.6972 126.967 71.6808 126.935 71.6825 126.939L89.3889 117.639C87.2429 113.553 83.8676 110.543 79.6511 108.817L72.0747 127.326ZM71.6825 126.939L103.482 187.484L121.188 178.184L89.3889 117.639L71.6825 126.939ZM103.482 187.484C103.446 187.416 103.403 187.318 103.366 187.193C103.329 187.068 103.306 186.945 103.296 186.833C103.274 186.597 103.318 186.538 103.269 186.723L122.587 191.899C123.796 187.388 123.513 182.609 121.188 178.184L103.482 187.484ZM103.216 186.928C103.242 186.824 103.29 186.675 103.376 186.502C103.463 186.328 103.568 186.169 103.679 186.035C103.909 185.755 104.046 185.724 103.843 185.83L113.143 203.537C117.715 201.135 121.297 197.166 122.64 191.694L103.216 186.928ZM103.843 185.83L96.6879 189.588L105.988 207.295L113.143 203.537L103.843 185.83ZM96.6879 189.588C95.6981 190.108 95.4085 189.993 95.6007 190.011C95.6653 190.017 95.6796 190.033 95.6104 190.002C95.5289 189.965 95.3008 189.848 94.9369 189.544L82.1051 204.885C85.3112 207.567 89.2017 209.49 93.6945 209.92C98.159 210.348 102.33 209.216 105.988 207.295L96.6879 189.588ZM94.7826 189.417L79.8034 177.388L67.2802 192.982L82.2594 205.011L94.7826 189.417ZM64.6886 189.835L72.1085 203.962L89.8148 194.662L82.395 180.535L64.6886 189.835ZM72.1085 203.962C72.073 203.894 72.0298 203.796 71.9927 203.671C71.9555 203.546 71.9326 203.423 71.9224 203.311C71.9009 203.075 71.9447 203.016 71.8953 203.201L91.2138 208.377C92.4225 203.866 92.139 199.087 89.8148 194.662L72.1085 203.962ZM71.8426 203.406C71.8681 203.302 71.9169 203.153 72.0029 202.98C72.0894 202.806 72.1943 202.647 72.3054 202.513C72.536 202.233 72.6729 202.201 72.4698 202.308L81.7695 220.015C86.3418 217.613 89.9236 213.644 91.2664 208.172L71.8426 203.406ZM72.4698 202.308L63.8467 206.837L73.1464 224.544L81.7695 220.015L72.4698 202.308Z" fill="black"/>
<path d="M130.657 122.099L134.845 137.519L140.161 135.774L134.398 120.871C133.339 118.31 132.497 116.297 131.87 114.83C131.222 113.298 130.527 112.399 129.786 112.133L129.195 112.327C128.755 112.981 128.728 114.116 129.114 115.735C129.478 117.287 129.992 119.409 130.657 122.099ZM139.842 155.073L143.036 165.803C143.725 167.903 143.562 170.065 142.547 172.288C141.597 174.49 139.843 176.011 137.283 176.851L128.028 179.888C125.337 180.771 122.924 180.618 120.789 179.429C118.719 178.217 117.405 176.54 116.847 174.397L103.896 126.955C101.846 116.722 102.177 108.979 104.889 103.727C107.6 98.4754 112.5 94.6863 119.589 92.36L125.693 90.3569C132.781 88.0306 138.974 88.1796 144.27 90.8038C149.566 93.428 154.42 99.4689 158.832 108.926L176.51 154.818C177.33 156.875 177.233 159.015 176.218 161.239C175.268 163.441 173.448 164.983 170.757 165.866L161.502 168.903C158.942 169.743 156.595 169.568 154.46 168.379C152.39 167.168 151.011 165.512 150.321 163.412L146.537 152.876L139.842 155.073Z" fill="#FF00D6"/>
<path d="M130.657 122.099L120.949 124.498L120.976 124.609L121.006 124.72L130.657 122.099ZM134.845 137.519L125.194 140.14L127.955 150.305L137.963 147.02L134.845 137.519ZM140.161 135.774L143.279 145.276L153.287 141.992L149.488 132.168L140.161 135.774ZM134.398 120.871L143.725 117.264L143.683 117.157L143.64 117.051L134.398 120.871ZM131.87 114.83L122.66 118.726L122.667 118.743L122.675 118.76L131.87 114.83ZM129.786 112.133L133.158 102.719L129.928 101.562L126.668 102.632L129.786 112.133ZM129.195 112.327L126.077 102.826L122.817 103.896L120.9 106.742L129.195 112.327ZM129.114 115.735L138.849 113.452L138.845 113.434L138.841 113.417L129.114 115.735ZM139.842 155.073L136.724 145.571L127.483 148.604L130.257 157.926L139.842 155.073ZM143.036 165.803L133.451 168.656L133.491 168.789L133.534 168.921L143.036 165.803ZM142.547 172.288L133.45 168.135L133.406 168.231L133.364 168.328L142.547 172.288ZM120.789 179.429L115.738 188.059L115.83 188.113L115.922 188.164L120.789 179.429ZM116.847 174.397L126.525 171.877L126.51 171.82L126.494 171.763L116.847 174.397ZM103.896 126.955L94.0906 128.919L94.1583 129.256L94.2489 129.588L103.896 126.955ZM144.27 90.8038L148.71 81.8435L144.27 90.8038ZM158.832 108.926L168.164 105.332L168.04 105.011L167.895 104.699L158.832 108.926ZM176.51 154.818L167.178 158.412L167.199 158.467L167.221 158.522L176.51 154.818ZM176.218 161.239L167.121 157.085L167.077 157.181L167.035 157.279L176.218 161.239ZM154.46 168.379L149.409 177.01L149.5 177.063L149.593 177.115L154.46 168.379ZM150.321 163.412L159.823 160.294L159.779 160.162L159.733 160.031L150.321 163.412ZM146.537 152.876L155.948 149.495L152.66 140.342L143.419 143.374L146.537 152.876ZM121.006 124.72L125.194 140.14L144.495 134.898L140.307 119.478L121.006 124.72ZM137.963 147.02L143.279 145.276L137.043 126.273L131.727 128.018L137.963 147.02ZM149.488 132.168L143.725 117.264L125.071 124.478L130.834 139.381L149.488 132.168ZM143.64 117.051C142.575 114.476 141.715 112.421 141.066 110.901L122.675 118.76C123.278 120.173 124.104 122.144 125.156 124.691L143.64 117.051ZM141.08 110.934C140.56 109.706 139.83 108.257 138.775 106.891C137.75 105.565 135.954 103.721 133.158 102.719L126.414 121.548C124.358 120.812 123.281 119.55 122.951 119.123C122.59 118.656 122.532 118.422 122.66 118.726L141.08 110.934ZM126.668 102.632L126.077 102.826L132.313 121.829L132.904 121.635L126.668 102.632ZM120.9 106.742C119.241 109.206 118.887 111.755 118.847 113.43C118.806 115.156 119.077 116.756 119.386 118.053L138.841 113.417C138.764 113.095 138.856 113.318 138.842 113.908C138.829 114.447 138.709 116.102 137.489 117.913L120.9 106.742ZM119.378 118.018C119.755 119.627 120.28 121.793 120.949 124.498L140.365 119.7C139.704 117.025 139.2 114.948 138.849 113.452L119.378 118.018ZM130.257 157.926L133.451 168.656L152.62 162.95L149.426 152.22L130.257 157.926ZM133.534 168.921C133.511 168.848 133.484 168.744 133.468 168.615C133.452 168.485 133.45 168.36 133.459 168.248C133.477 168.012 133.53 167.961 133.45 168.135L151.644 176.442C153.583 172.194 154.096 167.434 152.537 162.685L133.534 168.921ZM133.364 168.328C133.407 168.23 133.48 168.091 133.593 167.935C133.707 167.778 133.837 167.638 133.969 167.524C134.243 167.287 134.383 167.278 134.165 167.35L140.401 186.353C145.308 184.742 149.498 181.422 151.729 176.248L133.364 168.328ZM134.165 167.35L124.91 170.387L131.146 189.39L140.401 186.353L134.165 167.35ZM124.91 170.387C124.57 170.498 124.573 170.439 124.834 170.456C124.961 170.464 125.113 170.488 125.274 170.536C125.435 170.583 125.565 170.642 125.656 170.693L115.922 188.164C120.89 190.932 126.265 190.992 131.146 189.39L124.91 170.387ZM125.839 170.798C125.756 170.749 125.912 170.826 126.124 171.096C126.346 171.379 126.473 171.676 126.525 171.877L107.17 176.916C108.456 181.856 111.585 185.629 115.738 188.059L125.839 170.798ZM126.494 171.763L113.543 124.321L94.2489 129.588L107.2 177.03L126.494 171.763ZM113.701 124.991C111.792 115.46 112.644 110.505 113.775 108.315L96.0031 99.14C91.7113 107.453 91.9006 117.984 94.0906 128.919L113.701 124.991ZM113.775 108.315C114.987 105.966 117.425 103.595 122.707 101.861L116.471 82.8586C107.576 85.7776 100.213 90.9852 96.0031 99.14L113.775 108.315ZM122.707 101.861L128.811 99.8583L122.575 80.8554L116.471 82.8586L122.707 101.861ZM128.811 99.8583C134.093 98.1248 137.461 98.5904 139.83 99.7642L148.71 81.8435C140.486 77.7688 131.47 77.9364 122.575 80.8554L128.811 99.8583ZM139.83 99.7642C142.039 100.859 145.661 104.346 149.77 113.154L167.895 104.699C163.18 94.5922 157.093 85.9972 148.71 81.8435L139.83 99.7642ZM149.501 112.521L167.178 158.412L185.841 151.223L168.164 105.332L149.501 112.521ZM167.221 158.522C167.123 158.276 167.044 157.91 167.062 157.511C167.08 157.136 167.171 156.975 167.121 157.085L185.314 165.392C187.334 160.97 187.74 155.982 185.798 151.113L167.221 158.522ZM167.035 157.279C167.092 157.146 167.18 156.986 167.303 156.819C167.426 156.653 167.557 156.518 167.675 156.418C167.915 156.214 167.983 156.252 167.639 156.365L173.875 175.368C178.747 173.769 183.109 170.512 185.4 165.199L167.035 157.279ZM167.639 156.365L158.384 159.402L164.62 178.405L173.875 175.368L167.639 156.365ZM158.384 159.402C158.17 159.472 158.258 159.407 158.564 159.43C158.71 159.441 158.864 159.469 159.013 159.514C159.16 159.559 159.267 159.61 159.326 159.643L149.593 177.115C154.43 179.81 159.71 180.016 164.62 178.405L158.384 159.402ZM159.51 159.748C159.363 159.662 159.425 159.671 159.556 159.828C159.617 159.901 159.676 159.987 159.727 160.079C159.777 160.171 159.807 160.246 159.823 160.294L140.82 166.53C142.337 171.154 145.426 174.679 149.409 177.01L159.51 159.748ZM159.733 160.031L155.948 149.495L137.125 156.256L140.91 166.792L159.733 160.031ZM143.419 143.374L136.724 145.571L142.96 164.574L149.655 162.377L143.419 143.374Z" fill="black"/>
<path d="M194.638 157.249C191.911 158.012 189.507 157.753 187.426 156.47C185.412 155.168 184.107 153.453 183.512 151.325L165.052 85.3672C164.475 83.305 164.71 81.195 165.756 79.0372C166.868 76.8608 168.788 75.3909 171.515 74.6276L186.284 70.4945C194.351 68.3083 200.979 70.9726 206.167 78.4875L218.801 95.1804L220.935 74.3544C221.468 65.2385 225.75 59.5209 233.781 57.2017L248.549 53.0686C251.276 52.3053 253.647 52.5743 255.661 53.8757C257.742 55.1585 259.071 56.8309 259.648 58.8932L278.107 124.851C278.703 126.979 278.444 129.132 277.332 131.308C276.286 133.466 274.399 134.927 271.672 135.69L262.492 138.259C259.764 139.022 257.36 138.763 255.28 137.48C253.266 136.179 252.027 134.445 251.564 132.279L244.75 107.932C243.377 110.97 242.844 120.086 243.151 135.279C243.158 140.944 241.023 144.339 236.747 145.464L229.563 147.475C225.324 148.733 221.737 146.939 218.803 142.093C211.179 128.948 205.991 121.433 203.24 119.549L210.054 143.896C210.783 145.988 210.591 148.122 209.479 150.298C208.433 152.456 206.546 153.916 203.819 154.68L194.638 157.249Z" fill="#FF00D6"/>
<path d="M187.426 156.47L181.999 164.869L182.088 164.926L182.178 164.982L187.426 156.47ZM165.756 79.0372L156.851 74.4858L156.803 74.58L156.757 74.6753L165.756 79.0372ZM186.284 70.4945L183.668 60.8426L183.628 60.8534L183.588 60.8646L186.284 70.4945ZM206.167 78.4875L197.937 84.1685L198.061 84.3483L198.193 84.5224L206.167 78.4875ZM218.801 95.1804L210.827 101.215L226.159 121.473L228.749 96.1997L218.801 95.1804ZM220.935 74.3544L230.883 75.3737L230.905 75.1564L230.918 74.9384L220.935 74.3544ZM233.781 57.2017L231.086 47.5717L231.046 47.5828L231.006 47.5943L233.781 57.2017ZM255.661 53.8757L250.234 62.2749L250.323 62.3323L250.413 62.3879L255.661 53.8757ZM277.332 131.308L268.428 126.757L268.38 126.851L268.333 126.946L277.332 131.308ZM255.28 137.48L249.853 145.879L249.941 145.937L250.032 145.992L255.28 137.48ZM251.564 132.279L261.344 130.19L261.279 129.884L261.194 129.584L251.564 132.279ZM244.75 107.932L254.38 105.236L246.967 78.7478L235.638 103.813L244.75 107.932ZM243.151 135.279L253.151 135.266L253.15 135.172L253.148 135.077L243.151 135.279ZM236.747 145.464L234.203 135.793L234.127 135.813L234.052 135.834L236.747 145.464ZM229.563 147.475L226.868 137.845L226.793 137.866L226.718 137.888L229.563 147.475ZM218.803 142.093L210.153 147.11L210.2 147.192L210.249 147.273L218.803 142.093ZM203.24 119.549L208.891 111.298L186.197 95.7553L193.61 122.244L203.24 119.549ZM210.054 143.896L200.424 146.591L200.508 146.892L200.611 147.187L210.054 143.896ZM209.479 150.298L200.574 145.747L200.526 145.841L200.48 145.936L209.479 150.298ZM191.943 147.619C191.598 147.716 191.604 147.656 191.864 147.685C191.99 147.698 192.141 147.729 192.3 147.784C192.459 147.838 192.586 147.903 192.674 147.958L182.178 164.982C187.019 167.966 192.386 168.264 197.333 166.879L191.943 147.619ZM192.853 148.071C192.71 147.978 192.772 147.99 192.895 148.152C192.953 148.228 193.009 148.317 193.055 148.411C193.102 148.505 193.128 148.582 193.142 148.63L173.882 154.02C175.193 158.706 178.123 162.365 181.999 164.869L192.853 148.071ZM193.142 148.63L174.682 82.6721L155.422 88.0623L173.882 154.02L193.142 148.63ZM174.682 82.6721C174.706 82.7557 174.728 82.8652 174.738 82.9929C174.749 83.1208 174.745 83.2403 174.734 83.3422C174.71 83.5552 174.664 83.5848 174.754 83.3992L156.757 74.6753C154.783 78.7472 154.107 83.364 155.422 88.0623L174.682 82.6721ZM174.66 83.5887C174.612 83.6815 174.537 83.8026 174.43 83.9316C174.322 84.0609 174.21 84.1656 174.109 84.2428C173.901 84.4016 173.865 84.3542 174.211 84.2576L168.82 64.9976C163.873 66.3823 159.44 69.4225 156.851 74.4858L174.66 83.5887ZM174.211 84.2576L188.979 80.1245L183.588 60.8646L168.82 64.9976L174.211 84.2576ZM188.899 80.1465C191.204 79.5218 192.609 79.743 193.575 80.1315C194.624 80.5528 196.15 81.5792 197.937 84.1685L214.396 72.8064C210.996 67.8809 206.615 63.8177 201.035 61.5747C195.374 59.2989 189.431 59.2811 183.668 60.8426L188.899 80.1465ZM198.193 84.5224L210.827 101.215L226.775 89.1454L214.141 72.4525L198.193 84.5224ZM228.749 96.1997L230.883 75.3737L210.987 73.3351L208.853 94.1611L228.749 96.1997ZM230.918 74.9384C231.102 71.7974 231.873 70.1279 232.551 69.2237C233.175 68.3901 234.261 67.4717 236.555 66.809L231.006 47.5943C225.27 49.2509 220.2 52.3509 216.542 57.2348C212.937 62.0482 211.302 67.7955 210.952 73.7704L230.918 74.9384ZM236.476 66.8316L251.244 62.6985L245.854 43.4386L231.086 47.5717L236.476 66.8316ZM251.244 62.6985C251.593 62.6008 251.558 62.6696 251.245 62.6341C251.091 62.6166 250.907 62.5775 250.712 62.5076C250.517 62.4378 250.355 62.3532 250.234 62.2749L261.088 45.4765C256.228 42.336 250.792 42.0567 245.854 43.4386L251.244 62.6985ZM250.413 62.3879C250.607 62.5074 250.541 62.5051 250.389 62.313C250.315 62.2199 250.237 62.1025 250.167 61.9653C250.097 61.8282 250.049 61.6983 250.018 61.5883L269.278 56.1981C267.927 51.3709 264.805 47.7653 260.909 45.3635L250.413 62.3879ZM250.018 61.5883L268.477 127.546L287.737 122.155L269.278 56.1981L250.018 61.5883ZM268.477 127.546C268.457 127.472 268.435 127.367 268.425 127.237C268.414 127.107 268.418 126.981 268.431 126.87C268.46 126.635 268.515 126.587 268.428 126.757L286.236 135.86C288.362 131.701 289.084 126.969 287.737 122.155L268.477 127.546ZM268.333 126.946C268.396 126.816 268.491 126.66 268.621 126.499C268.752 126.338 268.888 126.21 269.011 126.115C269.26 125.922 269.326 125.962 268.977 126.06L274.367 145.32C279.305 143.938 283.806 140.877 286.33 135.67L268.333 126.946ZM268.977 126.06L259.797 128.629L265.187 147.889L274.367 145.32L268.977 126.06ZM259.797 128.629C259.451 128.726 259.457 128.667 259.717 128.695C259.844 128.708 259.994 128.739 260.153 128.794C260.312 128.849 260.439 128.913 260.528 128.968L250.032 145.992C254.872 148.976 260.239 149.274 265.187 147.889L259.797 128.629ZM260.707 129.081C260.626 129.028 260.778 129.112 260.977 129.391C261.187 129.684 261.3 129.986 261.344 130.19L241.785 134.368C242.851 139.36 245.811 143.268 249.853 145.879L260.707 129.081ZM261.194 129.584L254.38 105.236L235.12 110.627L241.934 134.974L261.194 129.584ZM235.638 103.813C234.736 105.81 234.28 108.007 233.999 109.8C233.692 111.752 233.482 114 233.338 116.463C233.049 121.397 232.997 127.77 233.153 135.481L253.148 135.077C252.997 127.596 253.059 121.813 253.303 117.631C253.426 115.537 253.587 113.986 253.757 112.9C253.952 111.655 254.079 111.573 253.863 112.05L235.638 103.813ZM233.151 135.292C233.152 136.095 233.075 136.579 233.019 136.817C232.966 137.043 232.949 136.975 233.089 136.752C233.243 136.507 233.486 136.236 233.79 136.022C234.08 135.818 234.264 135.777 234.203 135.793L239.292 155.135C243.61 153.999 247.46 151.471 250.021 147.397C252.426 143.571 253.156 139.243 253.151 135.266L233.151 135.292ZM234.052 135.834L226.868 137.845L232.258 157.105L239.442 155.094L234.052 135.834ZM226.718 137.888C226.657 137.906 226.836 137.845 227.189 137.869C227.56 137.895 227.908 138 228.167 138.129C228.403 138.247 228.423 138.314 228.261 138.148C228.09 137.975 227.773 137.601 227.357 136.914L210.249 147.273C212.309 150.675 215.179 153.995 219.221 156.017C223.524 158.169 228.127 158.332 232.408 157.062L226.718 137.888ZM227.453 137.076C223.584 130.404 220.232 124.984 217.424 120.917C216.022 118.886 214.675 117.075 213.4 115.565C212.229 114.178 210.699 112.537 208.891 111.298L197.589 127.799C197.157 127.503 197.307 127.508 198.121 128.47C198.83 129.311 199.773 130.553 200.965 132.279C203.345 135.727 206.398 140.637 210.153 147.11L227.453 137.076ZM193.61 122.244L200.424 146.591L219.684 141.201L212.87 116.854L193.61 122.244ZM200.611 147.187C200.524 146.936 200.461 146.567 200.497 146.17C200.531 145.795 200.629 145.639 200.574 145.747L218.383 154.85C220.596 150.521 221.222 145.556 219.497 140.606L200.611 147.187ZM200.48 145.936C200.543 145.806 200.637 145.65 200.768 145.489C200.898 145.328 201.035 145.199 201.158 145.104C201.406 144.912 201.473 144.952 201.123 145.05L206.514 164.31C211.451 162.928 215.953 159.867 218.477 154.66L200.48 145.936ZM201.123 145.05L191.943 147.619L197.333 166.879L206.514 164.31L201.123 145.05Z" fill="black"/>
<path d="M275.841 65.0392C275.462 61.1869 276.06 57.8653 277.636 55.0742C279.272 52.2055 281.146 50.5941 283.259 50.2401L330.703 43.8555C332.433 43.7621 333.904 44.331 335.115 45.562C336.385 46.7154 337.136 48.1478 337.366 49.8594L338.471 58.0748C338.702 59.7863 338.361 61.4004 337.45 62.9171C336.598 64.356 335.326 65.2591 333.633 65.6264L304.263 69.5787L305.866 81.4911L329.28 78.3403C331.01 78.2469 332.48 78.8157 333.691 80.0467C334.962 81.2001 335.712 82.6326 335.942 84.3441L336.495 88.4518C336.726 90.1634 336.385 91.7775 335.474 93.2941C334.622 94.7331 333.35 95.6362 331.657 96.0034L308.243 99.1542L309.846 111.067L339.216 107.114C340.946 107.021 342.416 107.59 343.627 108.821C344.898 109.974 345.648 111.407 345.879 113.118L346.984 121.334C347.214 123.045 346.874 124.659 345.963 126.176C345.111 127.615 343.839 128.518 342.145 128.885L294.701 135.27C292.57 135.487 290.341 134.462 288.015 132.196C285.748 129.853 284.288 126.773 283.635 122.958L275.841 65.0392Z" fill="#FF00D6"/>
<path d="M275.841 65.0392L265.889 66.0183L265.906 66.196L265.93 66.3729L275.841 65.0392ZM277.636 55.0742L268.949 50.1219L268.939 50.1395L268.929 50.1572L277.636 55.0742ZM283.259 50.2401L281.925 40.3294L281.766 40.3509L281.606 40.3775L283.259 50.2401ZM330.703 43.8555L330.164 33.8701L329.765 33.8916L329.369 33.9449L330.703 43.8555ZM335.115 45.562L327.986 52.5753L328.184 52.7764L328.393 52.966L335.115 45.562ZM337.45 62.9171L328.878 57.7674L328.862 57.795L328.845 57.8228L337.45 62.9171ZM333.633 65.6264L334.966 75.5371L335.362 75.4838L335.752 75.3991L333.633 65.6264ZM304.263 69.5787L302.929 59.6681L293.018 61.0017L294.352 70.9124L304.263 69.5787ZM305.866 81.4911L295.955 82.8248L297.289 92.7354L307.199 91.4017L305.866 81.4911ZM329.28 78.3403L328.74 68.3548L328.342 68.3763L327.946 68.4296L329.28 78.3403ZM333.691 80.0467L326.563 87.0601L326.761 87.2611L326.97 87.4507L333.691 80.0467ZM335.474 93.2941L326.902 88.1444L326.885 88.172L326.869 88.1998L335.474 93.2941ZM331.657 96.0034L332.99 105.914L333.386 105.861L333.776 105.776L331.657 96.0034ZM308.243 99.1542L306.909 89.2436L296.998 90.5772L298.332 100.488L308.243 99.1542ZM309.846 111.067L299.935 112.4L301.269 122.311L311.179 120.977L309.846 111.067ZM339.216 107.114L338.677 97.1288L338.278 97.1503L337.882 97.2036L339.216 107.114ZM343.627 108.821L336.499 115.834L336.697 116.035L336.906 116.225L343.627 108.821ZM345.963 126.176L337.391 121.026L337.374 121.054L337.358 121.082L345.963 126.176ZM342.145 128.885L343.479 138.796L343.875 138.743L344.265 138.658L342.145 128.885ZM294.701 135.27L295.715 145.218L295.875 145.202L296.035 145.18L294.701 135.27ZM288.015 132.196L280.827 139.149L280.931 139.256L281.037 139.36L288.015 132.196ZM283.635 122.958L273.724 124.292L273.748 124.469L273.778 124.645L283.635 122.958ZM285.793 64.0601C285.573 61.8216 285.974 60.6469 286.344 59.9913L268.929 50.1572C266.147 55.0836 265.351 60.5523 265.889 66.0183L285.793 64.0601ZM286.324 60.0266C286.753 59.2732 286.956 59.1527 286.788 59.2968C286.689 59.3822 286.476 59.5455 286.14 59.7108C285.797 59.88 285.38 60.024 284.911 60.1026L281.606 40.3775C275.221 41.4475 271.259 46.0698 268.949 50.1219L286.324 60.0266ZM284.593 60.1507L332.037 53.7662L329.369 33.9449L281.925 40.3294L284.593 60.1507ZM331.242 53.841C330.835 53.863 330.206 53.8134 329.496 53.5387C328.785 53.2637 328.281 52.8747 327.986 52.5753L342.243 38.5487C339.013 35.2658 334.747 33.6226 330.164 33.8701L331.242 53.841ZM328.393 52.966C328.213 52.8025 327.974 52.527 327.772 52.1416C327.571 51.7571 327.485 51.4134 327.455 51.193L347.277 48.5257C346.734 44.4947 344.864 40.907 341.836 38.158L328.393 52.966ZM327.455 51.193L328.561 59.4085L348.382 56.7411L347.277 48.5257L327.455 51.193ZM328.561 59.4085C328.531 59.1865 328.528 58.8671 328.604 58.5055C328.68 58.147 328.802 57.8937 328.878 57.7674L346.022 68.0668C348.072 64.6554 348.923 60.7622 348.382 56.7411L328.561 59.4085ZM328.845 57.8228C329.081 57.4236 329.482 56.9356 330.069 56.5187C330.65 56.1069 331.186 55.9245 331.513 55.8536L335.752 75.3991C340.053 74.4663 343.73 71.9397 346.055 68.0114L328.845 57.8228ZM332.299 55.7157L302.929 59.6681L305.596 79.4894L334.966 75.5371L332.299 55.7157ZM294.352 70.9124L295.955 82.8248L315.776 80.1574L314.173 68.245L294.352 70.9124ZM307.199 91.4017L330.613 88.2509L327.946 68.4296L304.532 71.5804L307.199 91.4017ZM329.819 88.3257C329.411 88.3477 328.783 88.2982 328.072 88.0234C327.361 87.7484 326.858 87.3595 326.563 87.0601L340.82 73.0334C337.59 69.7505 333.324 68.1074 328.74 68.3548L329.819 88.3257ZM326.97 87.4507C326.79 87.2872 326.551 87.0117 326.349 86.6264C326.147 86.2419 326.061 85.8982 326.032 85.6778L345.853 83.0104C345.311 78.9794 343.441 75.3917 340.413 72.6428L326.97 87.4507ZM326.032 85.6778L326.585 89.7855L346.406 87.1182L345.853 83.0104L326.032 85.6778ZM326.585 89.7855C326.555 89.5636 326.552 89.2441 326.628 88.8825C326.704 88.524 326.826 88.2707 326.902 88.1444L344.046 98.4438C346.096 95.0324 346.947 91.1392 346.406 87.1182L326.585 89.7855ZM326.869 88.1998C327.105 87.8006 327.506 87.3126 328.093 86.8957C328.673 86.4839 329.21 86.3016 329.537 86.2307L333.776 105.776C338.077 104.843 341.754 102.317 344.079 98.3884L326.869 88.1998ZM330.323 86.0928L306.909 89.2436L309.576 109.065L332.99 105.914L330.323 86.0928ZM298.332 100.488L299.935 112.4L319.756 109.733L318.153 97.8206L298.332 100.488ZM311.179 120.977L340.549 117.025L337.882 97.2036L308.512 101.156L311.179 120.977ZM339.755 117.1C339.347 117.122 338.719 117.072 338.009 116.797C337.298 116.522 336.794 116.133 336.499 115.834L350.756 101.807C347.526 98.5245 343.26 96.8814 338.677 97.1288L339.755 117.1ZM336.906 116.225C336.726 116.061 336.487 115.786 336.285 115.4C336.083 115.016 335.998 114.672 335.968 114.452L355.789 111.784C355.247 107.753 353.377 104.166 350.349 101.417L336.906 116.225ZM335.968 114.452L337.073 122.667L356.895 120L355.789 111.784L335.968 114.452ZM337.073 122.667C337.044 122.445 337.041 122.126 337.117 121.764C337.192 121.406 337.315 121.152 337.391 121.026L354.535 131.326C356.584 127.914 357.436 124.021 356.895 120L337.073 122.667ZM337.358 121.082C337.594 120.682 337.995 120.194 338.582 119.777C339.162 119.366 339.699 119.183 340.026 119.112L344.265 138.658C348.566 137.725 352.242 135.198 354.568 131.27L337.358 121.082ZM340.812 118.974L293.368 125.359L296.035 145.18L343.479 138.796L340.812 118.974ZM293.688 125.321C294.133 125.276 294.548 125.301 294.905 125.367C295.254 125.431 295.492 125.525 295.607 125.578C295.804 125.668 295.587 125.613 294.992 125.033L281.037 139.36C284.376 142.613 289.386 145.863 295.715 145.218L293.688 125.321ZM295.202 125.244C294.58 124.601 293.87 123.482 293.492 121.271L273.778 124.645C274.706 130.065 276.915 135.105 280.827 139.149L295.202 125.244ZM293.546 121.624L285.751 63.7056L265.93 66.3729L273.724 124.292L293.546 121.624Z" fill="black"/>
<path d="M358.5 189.05L305 115.55M430.5 181.05L456.5 87.0498" stroke="black" stroke-width="30" stroke-linecap="round" stroke-linejoin="round"/>
<path d="M303.398 186.65C296.144 187.487 290.49 193.43 290.212 200.824C289.541 218.676 288.431 261.542 291.851 291.164C295.272 320.786 306.12 362.271 310.842 379.501C312.797 386.637 319.657 391.134 326.911 390.297L503.825 369.871C511.075 369.034 516.729 363.096 517.01 355.704C517.686 337.885 518.803 295.122 515.367 265.357C511.93 235.592 501.098 194.209 496.378 177.012C494.42 169.879 487.562 165.386 480.312 166.224L303.398 186.65Z" fill="white" stroke="black" stroke-width="10"/>
<path d="M307.165 210.557C307.41 205.744 311.115 201.865 315.902 201.313L471.478 183.35C476.263 182.798 480.753 185.727 482.089 190.354C486.301 204.932 494.925 236.524 497.561 259.36C500.198 282.196 499 314.922 498.222 330.076C497.974 334.886 494.27 338.761 489.486 339.314L333.91 357.276C329.123 357.829 324.631 354.897 323.296 350.267C319.081 335.658 310.446 303.992 307.822 281.267C305.198 258.542 306.39 225.741 307.165 210.557Z" fill="black"/>
<rect x="331.143" y="221.699" width="24" height="24" rx="12" transform="rotate(-6.58614 331.143 221.699)" fill="white"/>
<rect x="357.738" y="242.788" width="10" height="10" rx="5" transform="rotate(-6.58614 357.738 242.788)" fill="white"/>
<path d="M358.5 189.05L305 115.55M430.5 181.05L456.5 87.0498" stroke="white" stroke-width="10" stroke-linecap="round" stroke-linejoin="round"/>
<path d="M204.951 369.731C200.373 370.294 196.528 369.256 193.416 366.618C190.418 363.966 188.751 360.802 188.415 357.126L174.467 243.657C173.916 240.124 174.774 236.707 177.04 233.408C179.421 230.095 182.9 228.157 187.478 227.595L203.614 225.611C208.192 225.048 211.98 226.093 214.978 228.745C218.09 231.383 219.807 234.482 220.129 238.044L225.278 279.93L238.324 278.326L233.175 236.44C232.624 232.907 233.482 229.49 235.749 226.191C238.13 222.878 241.609 220.94 246.186 220.377L262.323 218.394C266.9 217.831 270.688 218.876 273.686 221.528C276.798 224.165 278.515 227.265 278.837 230.827L292.786 344.296C293.351 347.944 292.442 351.424 290.062 354.737C287.795 358.036 284.373 359.967 279.796 360.53L263.659 362.514C259.082 363.076 255.237 362.039 252.124 359.401C249.126 356.749 247.46 353.585 247.124 349.909L241.996 308.195L228.95 309.799L234.078 351.513C234.642 355.161 233.734 358.641 231.353 361.954C229.087 365.254 225.665 367.184 221.087 367.747L204.951 369.731Z" fill="white"/>
<path d="M193.416 366.618L186.79 374.108L186.87 374.178L186.95 374.247L193.416 366.618ZM188.415 357.126L198.374 356.216L198.36 356.061L198.341 355.906L188.415 357.126ZM174.467 243.657L184.392 242.437L184.372 242.277L184.347 242.118L174.467 243.657ZM177.04 233.408L168.92 227.573L168.858 227.659L168.798 227.746L177.04 233.408ZM214.978 228.745L208.352 236.235L208.431 236.305L208.512 236.373L214.978 228.745ZM220.129 238.044L210.169 238.944L210.184 239.104L210.203 239.264L220.129 238.044ZM225.278 279.93L215.352 281.15L216.573 291.075L226.498 289.855L225.278 279.93ZM238.324 278.326L239.544 288.251L249.469 287.031L248.249 277.106L238.324 278.326ZM233.175 236.44L243.1 235.22L243.081 235.06L243.056 234.901L233.175 236.44ZM235.749 226.191L227.628 220.356L227.566 220.442L227.506 220.529L235.749 226.191ZM273.686 221.528L267.061 229.018L267.14 229.088L267.221 229.156L273.686 221.528ZM278.837 230.827L268.878 231.726L268.892 231.887L268.912 232.047L278.837 230.827ZM292.786 344.296L282.861 345.516L282.88 345.671L282.904 345.825L292.786 344.296ZM290.062 354.737L281.941 348.902L281.879 348.988L281.819 349.075L290.062 354.737ZM252.124 359.401L245.499 366.891L245.578 366.961L245.659 367.03L252.124 359.401ZM247.124 349.909L257.082 348.999L257.068 348.844L257.049 348.689L247.124 349.909ZM241.996 308.195L251.921 306.975L250.701 297.05L240.776 298.27L241.996 308.195ZM228.95 309.799L227.729 299.874L217.804 301.094L219.024 311.019L228.95 309.799ZM234.078 351.513L224.152 352.733L224.171 352.888L224.195 353.042L234.078 351.513ZM231.353 361.954L223.233 356.119L223.171 356.205L223.111 356.292L231.353 361.954ZM203.731 359.806C201.524 360.077 200.576 359.578 199.881 358.989L186.95 374.247C192.48 378.934 199.222 380.51 206.171 379.656L203.731 359.806ZM200.041 359.128C198.777 358.009 198.457 357.13 198.374 356.216L178.457 358.036C179.045 364.474 182.059 369.923 186.79 374.108L200.041 359.128ZM198.341 355.906L184.392 242.437L164.541 244.877L178.49 358.346L198.341 355.906ZM184.347 242.118C184.238 241.414 184.275 240.538 185.283 239.071L168.798 227.746C165.273 232.877 163.594 238.834 164.586 245.197L184.347 242.118ZM185.161 239.244C185.692 238.504 186.492 237.791 188.698 237.52L186.258 217.669C179.309 218.523 173.15 221.686 168.92 227.573L185.161 239.244ZM188.698 237.52L204.834 235.536L202.394 215.686L186.258 217.669L188.698 237.52ZM204.834 235.536C207.048 235.264 207.837 235.779 208.352 236.235L221.603 221.255C216.123 216.407 209.336 214.832 202.394 215.686L204.834 235.536ZM208.512 236.373C209.927 237.573 210.117 238.37 210.169 238.944L230.088 237.145C229.497 230.594 226.253 225.192 221.443 221.116L208.512 236.373ZM210.203 239.264L215.352 281.15L235.203 278.709L230.054 236.824L210.203 239.264ZM226.498 289.855L239.544 288.251L237.104 268.401L224.058 270.004L226.498 289.855ZM248.249 277.106L243.1 235.22L223.25 237.66L228.399 279.546L248.249 277.106ZM243.056 234.901C242.946 234.197 242.983 233.321 243.991 231.854L227.506 220.529C223.981 225.66 222.303 231.617 223.294 237.98L243.056 234.901ZM243.869 232.027C244.401 231.287 245.2 230.574 247.407 230.303L244.966 210.452C238.018 211.306 231.858 214.469 227.628 220.356L243.869 232.027ZM247.407 230.303L263.543 228.319L261.103 208.469L244.966 210.452L247.407 230.303ZM263.543 228.319C265.756 228.047 266.545 228.562 267.061 229.018L280.312 214.038C274.831 209.19 268.045 207.615 261.103 208.469L263.543 228.319ZM267.221 229.156C268.636 230.356 268.826 231.153 268.878 231.726L288.797 229.928C288.205 223.377 284.961 217.975 280.152 213.899L267.221 229.156ZM268.912 232.047L282.861 345.516L302.711 343.076L288.762 229.607L268.912 232.047ZM282.904 345.825C283.023 346.599 282.968 347.473 281.941 348.902L298.182 360.573C301.917 355.376 303.678 349.289 302.668 342.766L282.904 345.825ZM281.819 349.075C281.429 349.642 280.789 350.333 278.576 350.605L281.016 370.455C287.958 369.602 294.161 366.431 298.304 360.4L281.819 349.075ZM278.576 350.605L262.439 352.588L264.88 372.439L281.016 370.455L278.576 350.605ZM262.439 352.588C260.233 352.86 259.285 352.361 258.59 351.772L245.659 367.03C251.189 371.717 257.931 373.293 264.88 372.439L262.439 352.588ZM258.75 351.911C257.485 350.792 257.166 349.913 257.082 348.999L237.165 350.818C237.753 357.257 240.768 362.706 245.499 366.891L258.75 351.911ZM257.049 348.689L251.921 306.975L232.071 309.415L237.199 351.129L257.049 348.689ZM240.776 298.27L227.729 299.874L230.17 319.724L243.216 318.12L240.776 298.27ZM219.024 311.019L224.152 352.733L244.003 350.293L238.875 308.579L219.024 311.019ZM224.195 353.042C224.315 353.816 224.259 354.69 223.233 356.119L239.474 367.79C243.209 362.593 244.969 356.506 243.96 349.983L224.195 353.042ZM223.111 356.292C222.721 356.859 222.08 357.55 219.867 357.822L222.307 377.672C229.249 376.819 235.453 373.648 239.596 367.617L223.111 356.292ZM219.867 357.822L203.731 359.806L206.171 379.656L222.307 377.672L219.867 357.822Z" fill="black"/>
<path d="M122.972 383.103C115.862 383.929 109.494 383.581 103.865 382.059C98.2371 380.536 93.5864 377.859 89.9131 374.026C86.3347 370.06 83.6208 364.257 81.7714 356.616L79.8504 345.013C79.4782 338.529 82.0984 334.589 87.7107 333.193L113.647 328.899C119.41 328.412 123.16 331.297 124.897 337.555C125.406 340.626 126.579 342.769 128.416 343.984C130.367 345.181 132.017 344.908 133.364 343.165C134.58 340.626 134.887 337.186 134.285 332.845C133.795 330.588 132.565 328.805 130.595 327.495C128.606 326.071 121.849 324.794 110.326 323.663C98.783 322.419 90.0755 319.945 84.2032 316.242C78.3309 312.54 74.4139 306.176 72.4523 297.151C71.3215 291.027 71.5663 283.682 73.1868 275.116C74.8072 266.55 78.4263 259.113 84.0439 252.807C89.7565 246.368 96.5848 242.433 104.529 241.001L130.124 236.763C137.347 235.918 143.772 236.257 149.4 237.779C155.029 239.302 159.632 242.046 163.21 246.011C166.883 249.844 169.645 255.581 171.494 263.222L173.415 274.825C173.787 281.309 171.167 285.249 165.555 286.645L139.107 291.024C133.23 291.53 129.48 288.644 127.857 282.368C127.235 278.614 126.176 276.452 124.679 275.882C122.614 274.704 120.908 274.987 119.56 276.729C118.572 279.231 118.379 282.652 118.98 286.993C119.471 289.25 120.71 291.09 122.699 292.513C124.669 293.824 131.426 295.101 142.968 296.345C154.492 297.476 163.19 299.893 169.062 303.595C174.935 307.298 178.909 313.653 180.984 322.659C182.001 328.802 181.699 336.156 180.079 344.722C178.458 353.288 174.792 360.791 169.079 367.23C163.462 373.536 156.738 377.396 148.908 378.809L122.972 383.103Z" fill="white"/>
<path d="M122.972 383.103L124.126 393.036L124.366 393.008L124.605 392.969L122.972 383.103ZM89.9131 374.026L82.4889 380.725L82.5894 380.836L82.6932 380.945L89.9131 374.026ZM81.7714 356.616L71.9057 358.249L71.9657 358.611L72.052 358.968L81.7714 356.616ZM79.8504 345.013L69.8668 345.586L69.8974 346.119L69.9847 346.646L79.8504 345.013ZM87.7107 333.193L86.0774 323.327L85.6834 323.392L85.2958 323.489L87.7107 333.193ZM113.647 328.899L112.805 318.934L112.407 318.968L112.013 319.033L113.647 328.899ZM124.897 337.555L134.763 335.921L134.676 335.394L134.533 334.879L124.897 337.555ZM128.416 343.984L122.9 352.325L123.043 352.42L123.189 352.509L128.416 343.984ZM133.364 343.165L141.274 349.283L141.924 348.443L142.383 347.485L133.364 343.165ZM134.285 332.845L144.191 331.471L144.138 331.093L144.057 330.721L134.285 332.845ZM130.595 327.495L124.774 335.626L124.914 335.727L125.057 335.822L130.595 327.495ZM110.326 323.663L109.254 333.606L109.301 333.611L109.349 333.615L110.326 323.663ZM72.4523 297.151L62.6185 298.967L62.647 299.121L62.6804 299.275L72.4523 297.151ZM84.0439 252.807L91.5109 259.459L91.5176 259.451L91.5242 259.444L84.0439 252.807ZM104.529 241.001L102.895 231.135L102.825 231.147L102.755 231.159L104.529 241.001ZM130.124 236.763L128.961 226.831L128.725 226.859L128.49 226.898L130.124 236.763ZM149.4 237.779L152.012 228.126L149.4 237.779ZM163.21 246.011L155.786 252.711L155.886 252.822L155.99 252.93L163.21 246.011ZM171.494 263.222L181.36 261.589L181.3 261.227L181.214 260.87L171.494 263.222ZM173.415 274.825L183.399 274.252L183.368 273.719L183.281 273.192L173.415 274.825ZM165.555 286.645L167.188 296.511L167.582 296.446L167.97 296.349L165.555 286.645ZM139.107 291.024L139.964 300.987L140.354 300.954L140.74 300.89L139.107 291.024ZM127.857 282.368L117.991 284.002L118.064 284.441L118.175 284.873L127.857 282.368ZM124.679 275.882L119.726 284.569L120.397 284.952L121.119 285.227L124.679 275.882ZM119.56 276.729L111.65 270.611L110.782 271.734L110.26 273.054L119.56 276.729ZM118.98 286.993L109.075 288.367L109.128 288.745L109.209 289.117L118.98 286.993ZM122.699 292.513L116.878 300.645L117.018 300.745L117.162 300.84L122.699 292.513ZM142.968 296.345L141.896 306.288L141.944 306.293L141.992 306.298L142.968 296.345ZM180.984 322.659L190.85 321.025L190.799 320.717L190.729 320.413L180.984 322.659ZM169.079 367.23L176.546 373.881L176.553 373.874L176.56 373.866L169.079 367.23ZM148.908 378.809L150.541 388.675L150.612 388.663L150.684 388.65L148.908 378.809ZM121.817 373.17C115.691 373.882 110.634 373.531 106.477 372.406L101.254 391.712C108.353 393.632 116.034 393.977 124.126 393.036L121.817 373.17ZM106.477 372.406C102.427 371.31 99.4256 369.499 97.133 367.107L82.6932 380.945C87.7471 386.218 94.0475 389.762 101.254 391.712L106.477 372.406ZM97.3373 367.326C95.2768 365.043 93.1201 360.995 91.4908 354.263L72.052 358.968C74.1216 367.518 77.3927 375.077 82.4889 380.725L97.3373 367.326ZM91.6371 354.982L89.7161 343.379L69.9847 346.646L71.9057 358.249L91.6371 354.982ZM89.834 344.439C89.7266 342.569 90.1279 342.335 89.8632 342.733C89.7331 342.928 89.5773 343.059 89.502 343.108C89.4531 343.14 89.609 343.025 90.1257 342.897L85.2958 323.489C80.6332 324.649 76.1931 327.171 73.2095 331.658C70.3247 335.996 69.6021 340.973 69.8668 345.586L89.834 344.439ZM89.3441 343.058L115.28 338.764L112.013 319.033L86.0774 323.327L89.3441 343.058ZM114.488 338.863C115.019 338.818 115.203 338.877 115.147 338.862C115.06 338.84 114.87 338.767 114.684 338.623C114.305 338.332 114.76 338.424 115.262 340.23L134.533 334.879C133.297 330.428 131.008 325.949 126.88 322.772C122.609 319.486 117.593 318.53 112.805 318.934L114.488 338.863ZM115.031 339.188C115.802 343.843 117.917 349.03 122.9 352.325L133.932 335.643C134.201 335.821 134.429 336.024 134.609 336.224C134.786 336.421 134.886 336.583 134.93 336.665C135.009 336.808 134.881 336.637 134.763 335.921L115.031 339.188ZM123.189 352.509C125.457 353.9 128.801 355.196 132.75 354.542C136.772 353.876 139.559 351.5 141.274 349.283L125.454 337.047C125.821 336.572 127.11 335.204 129.483 334.811C131.783 334.43 133.326 335.265 133.643 335.459L123.189 352.509ZM142.383 347.485C144.797 342.444 144.923 336.756 144.191 331.471L124.38 334.218C124.603 335.829 124.617 336.995 124.546 337.792C124.475 338.583 124.335 338.868 124.345 338.846L142.383 347.485ZM144.057 330.721C143 325.856 140.206 321.878 136.132 319.168L125.057 335.822C125.082 335.839 124.934 335.741 124.764 335.494C124.591 335.243 124.527 335.03 124.513 334.969L144.057 330.721ZM136.416 319.364C134.586 318.054 132.55 317.329 131.16 316.9C129.578 316.411 127.788 316.002 125.893 315.643C122.094 314.925 117.19 314.289 111.302 313.711L109.349 333.615C114.986 334.169 119.222 334.736 122.178 335.295C123.662 335.576 124.654 335.823 125.258 336.009C126.055 336.256 125.608 336.224 124.774 335.626L136.416 319.364ZM111.398 313.721C100.479 312.544 93.5314 310.302 89.5368 307.784L78.8696 324.701C86.6196 329.588 97.087 332.294 109.254 333.606L111.398 313.721ZM89.5368 307.784C86.6082 305.937 83.8111 302.328 82.2241 295.027L62.6804 299.275C65.0167 310.024 70.0536 319.143 78.8696 324.701L89.5368 307.784ZM82.286 295.335C81.4499 290.807 81.5367 284.776 83.0125 276.974L63.361 273.257C61.596 282.588 61.1931 291.247 62.6185 298.967L82.286 295.335ZM83.0125 276.974C84.3073 270.13 87.1398 264.366 91.5109 259.459L76.577 246.155C69.7128 253.861 65.3072 262.969 63.361 273.257L83.0125 276.974ZM91.5242 259.444C95.8539 254.564 100.719 251.849 106.303 250.842L102.755 231.159C92.4511 233.017 83.6592 238.173 76.5636 246.17L91.5242 259.444ZM106.162 250.866L131.757 246.629L128.49 226.898L102.895 231.135L106.162 250.866ZM131.286 246.695C137.546 245.963 142.652 246.313 146.789 247.432L152.012 228.126C144.892 226.2 137.147 225.873 128.961 226.831L131.286 246.695ZM146.789 247.432C150.739 248.501 153.612 250.302 155.786 252.711L170.634 239.312C165.652 233.79 159.318 230.103 152.012 228.126L146.789 247.432ZM155.99 252.93C157.992 255.019 160.155 258.882 161.775 265.575L181.214 260.87C179.135 252.281 175.775 244.67 170.43 239.092L155.99 252.93ZM161.629 264.856L163.55 276.459L183.281 273.192L181.36 261.589L161.629 264.856ZM163.432 275.399C163.539 277.269 163.138 277.503 163.402 277.105C163.533 276.91 163.688 276.779 163.764 276.73C163.813 276.698 163.657 276.813 163.14 276.941L167.97 296.349C172.633 295.189 177.073 292.667 180.056 288.18C182.941 283.842 183.664 278.865 183.399 274.252L163.432 275.399ZM163.922 276.78L137.474 281.158L140.74 300.89L167.188 296.511L163.922 276.78ZM138.25 281.061C137.672 281.111 137.457 281.05 137.498 281.06C137.572 281.078 137.774 281.151 137.985 281.314C138.426 281.653 137.996 281.635 137.538 279.864L118.175 284.873C119.341 289.378 121.597 293.94 125.789 297.165C130.103 300.484 135.175 301.399 139.964 300.987L138.25 281.061ZM137.722 280.735C137.333 278.386 136.708 275.841 135.576 273.532C134.48 271.294 132.308 268.087 128.239 266.537L121.119 285.227C118.547 284.247 117.653 282.406 117.616 282.331C117.558 282.213 117.6 282.269 117.689 282.584C117.776 282.889 117.883 283.351 117.991 284.002L137.722 280.735ZM129.633 267.195C127.346 265.891 124.055 264.71 120.217 265.345C116.247 266.002 113.43 268.311 111.65 270.611L127.47 282.848C127.038 283.406 125.748 284.702 123.484 285.076C121.353 285.429 119.947 284.695 119.726 284.569L129.633 267.195ZM110.26 273.054C108.358 277.867 108.37 283.279 109.075 288.367L128.886 285.62C128.387 282.025 128.785 280.594 128.86 280.405L110.26 273.054ZM109.209 289.117C110.259 293.949 113.004 297.871 116.878 300.645L128.52 284.382C128.396 284.293 128.46 284.314 128.571 284.478C128.622 284.554 128.667 284.636 128.701 284.717C128.734 284.797 128.748 284.852 128.752 284.869L109.209 289.117ZM117.162 300.84C118.934 302.018 120.895 302.681 122.232 303.077C123.765 303.532 125.514 303.926 127.386 304.28C131.141 304.99 136.014 305.653 141.896 306.288L144.04 286.403C138.38 285.793 134.103 285.195 131.102 284.628C129.596 284.343 128.565 284.095 127.917 283.902C127.072 283.652 127.45 283.663 128.237 284.187L117.162 300.84ZM141.992 306.298C152.874 307.365 159.773 309.56 163.729 312.054L174.396 295.137C166.608 290.226 156.11 287.587 143.945 286.393L141.992 306.298ZM163.729 312.054C166.706 313.932 169.554 317.59 171.239 324.904L190.729 320.413C188.263 309.715 183.164 300.665 174.396 295.137L163.729 312.054ZM171.118 324.292C171.884 328.916 171.736 335.024 170.253 342.864L189.905 346.581C191.663 337.288 192.118 328.687 190.85 321.025L171.118 324.292ZM170.253 342.864C168.964 349.678 166.096 355.524 161.599 360.593L176.56 373.866C183.487 366.058 187.953 356.898 189.905 346.581L170.253 342.864ZM161.612 360.578C157.384 365.325 152.621 367.977 147.131 368.968L150.684 388.65C160.855 386.814 169.539 381.747 176.546 373.881L161.612 360.578ZM147.274 368.943L121.338 373.237L124.605 392.969L150.541 388.675L147.274 368.943Z" fill="black"/>
<path d="M559.948 291.04C560.124 295.662 560.276 299.36 560.404 302.134C560.537 304.792 561.106 306.544 562.114 307.389L563.842 307.453C564.794 306.68 565.434 304.973 565.762 302.331C566.21 299.579 566.691 295.904 567.207 291.308L573.114 215.721C573.02 212.025 574.353 208.728 577.114 205.83C579.99 202.936 583.79 201.577 588.514 201.751L604.069 202.326C608.793 202.5 612.425 204.134 614.965 207.228C617.62 210.326 618.764 213.714 618.397 217.393L618.713 293.21C618.888 297.832 619.04 301.53 619.168 304.303C619.416 306.966 619.986 308.718 620.878 309.559L622.606 309.623C623.673 308.854 624.371 307.149 624.699 304.508C625.032 301.751 625.456 298.074 625.972 293.478L632.224 217.903C632.36 214.216 633.809 210.924 636.569 208.026C639.445 205.132 643.13 203.768 647.624 203.934L663.871 204.534C668.595 204.708 672.227 206.342 674.766 209.436C677.421 212.534 678.565 215.922 678.198 219.601L671.025 301.372C668.313 318.579 663.315 330.51 656.031 337.164C648.747 343.818 638.883 346.915 626.439 346.455L617.451 346.124C605.826 345.348 597.203 339.838 591.581 329.592C585.22 339.395 576.213 344.255 564.563 344.171L555.576 343.839C543.131 343.379 533.522 339.563 526.749 332.39C519.976 325.217 515.871 312.95 514.435 295.59L513.312 213.512C513.218 209.817 514.551 206.52 517.312 203.622C520.188 200.728 523.988 199.369 528.712 199.543L544.959 200.143C549.453 200.309 552.969 201.939 555.509 205.032C558.164 208.13 559.423 211.523 559.287 215.21L559.948 291.04Z" fill="white"/>
<path d="M559.948 291.04L549.949 291.127L549.95 291.273L549.955 291.419L559.948 291.04ZM560.404 302.134L550.415 302.596L550.415 302.614L550.416 302.632L560.404 302.134ZM562.114 307.389L555.687 315.05L558.316 317.255L561.745 317.382L562.114 307.389ZM563.842 307.453L563.473 317.446L567.228 317.584L570.145 315.216L563.842 307.453ZM565.762 302.331L555.892 300.726L555.861 300.911L555.838 301.098L565.762 302.331ZM567.207 291.308L577.145 292.424L577.164 292.256L577.177 292.087L567.207 291.308ZM573.114 215.721L583.083 216.5L583.124 215.983L583.111 215.466L573.114 215.721ZM577.114 205.83L570.021 198.781L569.946 198.856L569.873 198.932L577.114 205.83ZM614.965 207.228L607.235 213.573L607.303 213.654L607.371 213.735L614.965 207.228ZM618.397 217.393L608.446 216.401L608.395 216.916L608.397 217.434L618.397 217.393ZM618.713 293.21L608.713 293.252L608.713 293.421L608.72 293.589L618.713 293.21ZM619.168 304.303L609.179 304.766L609.19 304.998L609.211 305.23L619.168 304.303ZM620.878 309.559L614.02 316.836L616.754 319.413L620.509 319.552L620.878 309.559ZM622.606 309.623L622.237 319.616L625.666 319.742L628.45 317.737L622.606 309.623ZM624.699 304.508L634.623 305.741L634.625 305.723L634.627 305.705L624.699 304.508ZM625.972 293.478L635.909 294.593L635.926 294.448L635.938 294.303L625.972 293.478ZM632.224 217.903L642.19 218.728L642.209 218.5L642.217 218.272L632.224 217.903ZM636.569 208.026L629.477 200.976L629.402 201.051L629.329 201.128L636.569 208.026ZM674.766 209.436L667.037 215.781L667.104 215.863L667.173 215.943L674.766 209.436ZM678.198 219.601L668.248 218.609L668.242 218.668L668.237 218.727L678.198 219.601ZM671.025 301.372L680.903 302.929L680.957 302.589L680.987 302.246L671.025 301.372ZM617.451 346.124L616.785 356.101L616.934 356.111L617.082 356.117L617.451 346.124ZM591.581 329.592L600.349 324.782L592.301 310.114L583.193 324.148L591.581 329.592ZM564.563 344.171L564.194 354.164L564.342 354.169L564.491 354.17L564.563 344.171ZM514.435 295.59L504.436 295.727L504.441 296.071L504.469 296.414L514.435 295.59ZM513.312 213.512L523.311 213.376L523.311 213.316L523.309 213.257L513.312 213.512ZM517.312 203.622L510.219 196.573L510.145 196.648L510.072 196.724L517.312 203.622ZM555.509 205.032L547.78 211.377L547.847 211.459L547.916 211.539L555.509 205.032ZM559.287 215.21L549.294 214.841L549.285 215.069L549.287 215.297L559.287 215.21ZM549.955 291.419C550.131 296.053 550.284 299.782 550.415 302.596L570.393 301.671C570.267 298.937 570.116 295.27 569.941 290.661L549.955 291.419ZM550.416 302.632C550.564 305.586 551.192 311.28 555.687 315.05L568.54 299.727C569.938 300.899 570.368 302.126 570.44 302.348C570.52 302.594 570.431 302.437 570.392 301.635L550.416 302.632ZM561.745 317.382L563.473 317.446L564.211 297.459L562.483 297.396L561.745 317.382ZM570.145 315.216C572.515 313.292 573.738 310.867 574.399 309.103C575.089 307.264 575.465 305.342 575.686 303.565L555.838 301.098C555.731 301.962 555.622 302.215 555.672 302.083C555.704 301.997 555.821 301.702 556.082 301.297C556.345 300.887 556.804 300.285 557.539 299.689L570.145 315.216ZM575.632 303.937C576.118 300.951 576.621 297.092 577.145 292.424L557.27 290.193C556.762 294.716 556.301 298.207 555.892 300.726L575.632 303.937ZM577.177 292.087L583.083 216.5L563.144 214.942L557.238 290.529L577.177 292.087ZM583.111 215.466C583.09 214.659 583.258 213.878 584.354 212.728L569.873 198.932C565.447 203.578 562.949 209.391 563.117 215.976L583.111 215.466ZM584.206 212.879C584.797 212.285 585.725 211.655 588.145 211.744L588.883 191.758C581.855 191.498 575.182 193.588 570.021 198.781L584.206 212.879ZM588.145 211.744L603.7 212.319L604.438 192.332L588.883 191.758L588.145 211.744ZM603.7 212.319C606.131 212.409 606.846 213.098 607.235 213.573L622.694 200.883C618.004 195.17 611.456 192.592 604.438 192.332L603.7 212.319ZM607.371 213.735C608.453 214.997 608.513 215.735 608.446 216.401L628.348 218.384C629.015 211.693 626.786 205.654 622.558 200.721L607.371 213.735ZM608.397 217.434L608.713 293.252L628.713 293.168L628.397 217.351L608.397 217.434ZM608.72 293.589C608.896 298.223 609.049 301.952 609.179 304.766L629.158 303.841C629.031 301.107 628.88 297.44 628.705 292.831L608.72 293.589ZM609.211 305.23C609.376 306.999 609.681 308.891 610.272 310.708C610.836 312.44 611.891 314.83 614.02 316.836L627.736 302.281C628.384 302.891 628.77 303.473 628.98 303.845C629.189 304.217 629.275 304.47 629.291 304.521C629.31 304.578 629.286 304.519 629.247 304.309C629.209 304.102 629.164 303.797 629.125 303.377L609.211 305.23ZM620.509 319.552L622.237 319.616L622.975 299.629L621.247 299.566L620.509 319.552ZM628.45 317.737C633.211 314.309 634.258 308.677 634.623 305.741L614.775 303.274C614.676 304.071 614.576 304.221 614.674 303.981C614.763 303.765 615.282 302.574 616.762 301.508L628.45 317.737ZM634.627 305.705C634.964 302.909 635.392 299.202 635.909 294.593L616.034 292.363C615.52 296.947 615.099 300.593 614.771 303.31L634.627 305.705ZM635.938 294.303L642.19 218.728L622.258 217.079L616.006 292.654L635.938 294.303ZM642.217 218.272C642.255 217.239 642.578 216.216 643.81 214.923L629.329 201.128C625.039 205.631 622.465 211.193 622.231 217.534L642.217 218.272ZM643.662 215.075C644.358 214.375 645.233 213.852 647.255 213.927L647.993 193.941C641.027 193.684 634.533 195.889 629.477 200.976L643.662 215.075ZM647.255 213.927L663.502 214.527L664.24 194.541L647.993 193.941L647.255 213.927ZM663.502 214.527C665.932 214.617 666.647 215.306 667.037 215.781L682.496 203.091C677.806 197.378 671.258 194.8 664.24 194.541L663.502 214.527ZM667.173 215.943C668.255 217.205 668.314 217.943 668.248 218.609L688.149 220.593C688.816 213.901 686.587 207.863 682.36 202.929L667.173 215.943ZM668.237 218.727L661.063 300.498L680.987 302.246L688.16 220.475L668.237 218.727ZM661.147 299.815C658.546 316.315 654.027 325.45 649.286 329.781L662.775 344.547C672.603 335.57 678.079 320.844 680.903 302.929L661.147 299.815ZM649.286 329.781C644.414 334.231 637.352 336.852 626.808 336.462L626.069 356.449C640.413 356.978 653.079 353.404 662.775 344.547L649.286 329.781ZM626.808 336.462L617.82 336.13L617.082 356.117L626.069 356.449L626.808 336.462ZM618.117 336.146C609.91 335.598 604.334 332.046 600.349 324.782L582.814 334.402C590.071 347.629 601.742 355.098 616.785 356.101L618.117 336.146ZM583.193 324.148C578.682 331.099 572.86 334.23 564.635 334.171L564.491 354.17C579.567 354.279 591.757 347.691 599.97 335.035L583.193 324.148ZM564.932 334.177L555.945 333.846L555.207 353.832L564.194 354.164L564.932 334.177ZM555.945 333.846C545.4 333.456 538.55 330.322 534.02 325.524L519.478 339.256C528.495 348.804 540.863 353.302 555.207 353.832L555.945 333.846ZM534.02 325.524C529.612 320.856 525.778 311.412 524.401 294.766L504.469 296.414C505.964 314.488 510.34 329.578 519.478 339.256L534.02 325.524ZM524.434 295.453L523.311 213.376L503.313 213.649L504.436 295.727L524.434 295.453ZM523.309 213.257C523.289 212.45 523.457 211.67 524.552 210.519L510.072 196.724C505.646 201.37 503.148 207.183 503.316 213.767L523.309 213.257ZM524.405 210.671C524.995 210.077 525.923 209.447 528.343 209.536L529.081 189.55C522.053 189.29 515.381 191.379 510.219 196.573L524.405 210.671ZM528.343 209.536L544.59 210.136L545.328 190.15L529.081 189.55L528.343 209.536ZM544.59 210.136C546.615 210.211 547.294 210.785 547.78 211.377L563.238 198.687C558.645 193.092 552.291 190.407 545.328 190.15L544.59 210.136ZM547.916 211.539C549.122 212.947 549.327 213.94 549.294 214.841L569.28 215.579C569.519 209.106 567.205 203.313 563.102 198.525L547.916 211.539ZM549.287 215.297L549.949 291.127L569.948 290.953L569.287 215.123L549.287 215.297Z" fill="black"/>
</svg>
