<svg width="77" height="22" viewBox="0 0 77 22" fill="none" xmlns="http://www.w3.org/2000/svg">
<path d="M7.43094e-07 17L2.18557e-07 5L77 5V17L7.43094e-07 17Z" fill="#229342"/>
<path d="M71.5 17L66 5H71.5L77 17H71.5Z" fill="black" fill-opacity="0.3"/>
<path d="M60.5 17L55 5H60.5L66 17H60.5Z" fill="black" fill-opacity="0.3"/>
<path d="M49.5 17L44 5H49.5L55 17H49.5Z" fill="black" fill-opacity="0.3"/>
<path d="M38.5 17L33 5H38.5L44 17H38.5Z" fill="black" fill-opacity="0.3"/>
<path d="M27.5 17L22 5H27.5L33 17H27.5Z" fill="black" fill-opacity="0.3"/>
<path d="M16.5 17L11 5H16.5L22 17H16.5Z" fill="black" fill-opacity="0.3"/>
<path d="M5.5 17L2.18557e-07 5H5.5L11 17H5.5Z" fill="black" fill-opacity="0.3"/>
<path d="M9.6165e-07 22L7.43094e-07 17L77 17V22L9.6165e-07 22Z" fill="black"/>
<path d="M2.18557e-07 5L0 3.36578e-06L77 0V5L2.18557e-07 5Z" fill="black"/>
</svg>
