<svg width="77" height="23" viewBox="0 0 77 23" fill="none" xmlns="http://www.w3.org/2000/svg">
<path d="M7.43094e-07 17.5L2.18557e-07 5.5L77 5.5V17.5L7.43094e-07 17.5Z" fill="#FF0000"/>
<path d="M71.5 17.5L66 5.5H71.5L77 17.5H71.5Z" fill="black" fill-opacity="0.3"/>
<path d="M60.5 17.5L55 5.5H60.5L66 17.5H60.5Z" fill="black" fill-opacity="0.3"/>
<path d="M49.5 17.5L44 5.5H49.5L55 17.5H49.5Z" fill="black" fill-opacity="0.3"/>
<path d="M38.5 17.5L33 5.5H38.5L44 17.5H38.5Z" fill="black" fill-opacity="0.3"/>
<path d="M27.5 17.5L22 5.5H27.5L33 17.5H27.5Z" fill="black" fill-opacity="0.3"/>
<path d="M16.5 17.5L11 5.5H16.5L22 17.5H16.5Z" fill="black" fill-opacity="0.3"/>
<path d="M5.5 17.5L2.18557e-07 5.5H5.5L11 17.5H5.5Z" fill="black" fill-opacity="0.3"/>
<path d="M9.6165e-07 22.5L7.43094e-07 17.5L77 17.5V22.5L9.6165e-07 22.5Z" fill="black"/>
<path d="M2.18557e-07 5.5L0 0.500003L77 0.5V5.5L2.18557e-07 5.5Z" fill="black"/>
</svg>
